<svg><g><path fill="none" stroke="#EEEEEE" stroke-width="0.25" stroke-linecap="round" stroke-miterlimit="10" d="M4553.7,233h46.6
		 M4553.7,274.6h46.6 M4553.7,194.5h46.6"/>
	
		<line fill="none" stroke="#EEEEEE" stroke-width="0.25" stroke-linecap="round" stroke-miterlimit="10" x1="4337.5" y1="172.5" x2="4622.1" y2="172.5"/>
	<path fill="none" stroke="#EEEEEE" stroke-width="0.25" stroke-linecap="round" stroke-miterlimit="10" d="M4362.4,121.5h234.8
		 M4362.4,149.5h234.8 M4334.5,169.5h290.6"/>
	
		<line fill="none" stroke="#EEEEEE" stroke-width="0.25" stroke-linecap="round" stroke-miterlimit="10" x1="4317.8" y1="87.5" x2="4641.8" y2="87.5"/>
	
		<line fill="none" stroke="#EEEEEE" stroke-width="0.25" stroke-linecap="round" stroke-miterlimit="10" x1="4313" y1="83.8" x2="4646.7" y2="83.8"/>
	
		<line fill="none" stroke="#EEEEEE" stroke-width="0.25" stroke-linecap="round" stroke-miterlimit="10" x1="4641.8" y1="93.2" x2="4317.8" y2="93.2"/>
	<path fill="none" stroke="#EEEEEE" stroke-width="0.25" stroke-linecap="round" stroke-miterlimit="10" d="M4544.7,185.5h64.6
		 M4660.3,17.6h-360.8 M4631.7,45.5h-136.4 M4645.6,96.9h-331.6 M4631.7,29.6h-136.4"/>
	<path fill="none" stroke="#EEEEEE" stroke-width="0.25" stroke-linecap="round" stroke-miterlimit="10" d="M4549.3,237.4h55.4
		 M4549.3,189.9h55.4 M4549.3,279.1h55.4 M4546.3,282.1h61.4 M4546.3,186.9h61.4"/>
	<path fill="none" stroke="#EEEEEE" stroke-width="0.25" stroke-linecap="round" stroke-miterlimit="10" d="M4299.4,301.2V5.6
		 M4660.3,5.6h-360.8 M4299.4,283.6h360.8"/>
	<path fill="none" stroke="#EEEEEE" stroke-width="0.25" stroke-linecap="round" stroke-miterlimit="10" d="M4431.2,274.6v9
		 M4528.8,274.6v9"/>
	
		<line fill="none" stroke="#EEEEEE" stroke-width="0.25" stroke-linecap="round" stroke-miterlimit="10" x1="4334.5" y1="283.6" x2="4334.5" y2="169.5"/>
	
		<line fill="none" stroke="#EEEEEE" stroke-width="0.25" stroke-linecap="round" stroke-miterlimit="10" x1="4337.5" y1="283.6" x2="4337.5" y2="172.5"/>
	<path fill="none" stroke="#EEEEEE" stroke-width="0.25" stroke-linecap="round" stroke-miterlimit="10" d="M4448.4,282.1v-95.2
		 M4451.4,279.1v-89.2"/>
	
		<line fill="none" stroke="#EEEEEE" stroke-width="0.25" stroke-linecap="round" stroke-miterlimit="10" x1="4446.8" y1="283.6" x2="4446.8" y2="185.5"/>
	<path fill="none" stroke="#EEEEEE" stroke-width="0.25" stroke-linecap="round" stroke-miterlimit="10" d="M4511.4,282.1v-95.2
		 M4508.4,279.1v-89.2"/>
	<path fill="none" stroke="#EEEEEE" stroke-width="0.25" stroke-linecap="round" stroke-miterlimit="10" d="M4544.7,283.6v-98.2
		 M4512.8,185.5v98.2"/>
	<path fill="none" stroke="#EEEEEE" stroke-width="0.25" stroke-linecap="round" stroke-miterlimit="10" d="M4413.4,282.1v-95.2
		 M4355,279.1v-89.2 M4410.4,279.1v-89.2 M4549.3,279.1v-89.2 M4546.3,282.1v-95.2"/>
	
		<line fill="none" stroke="#EEEEEE" stroke-width="0.25" stroke-linecap="round" stroke-miterlimit="10" x1="4415" y1="283.6" x2="4415" y2="185.5"/>
	
		<line fill="none" stroke="#EEEEEE" stroke-width="0.25" stroke-linecap="round" stroke-miterlimit="10" x1="4352" y1="282.1" x2="4352" y2="186.9"/>
	
		<line fill="none" stroke="#EEEEEE" stroke-width="0.25" stroke-linecap="round" stroke-miterlimit="10" x1="4350.4" y1="283.6" x2="4350.4" y2="185.5"/>
	<path fill="none" stroke="#EEEEEE" stroke-width="0.25" stroke-linecap="round" stroke-miterlimit="10" d="M4352,282.1h61.4
		 M4355,279.1h55.4"/>
	<path fill="none" stroke="#EEEEEE" stroke-width="0.25" stroke-linecap="round" stroke-miterlimit="10" d="M4448.4,282.1h63
		 M4451.4,279.1h57"/>
	<path fill="none" stroke="#EEEEEE" stroke-width="0.25" stroke-linecap="round" stroke-miterlimit="10" d="M4317.8,87.5v5.6"/>
	
		<line fill="none" stroke="#EEEEEE" stroke-width="0.25" stroke-linecap="round" stroke-miterlimit="10" x1="4314.1" y1="83.8" x2="4314.1" y2="96.9"/>
	<path fill="none" stroke="#EEEEEE" stroke-width="0.25" stroke-linecap="round" stroke-miterlimit="10" d="M4352,186.9h61.4
		 M4355,189.9h55.4 M4355,237.4h55.4 M4359.4,274.6h46.6 M4359.4,233h46.6 M4359.4,194.5h46.6"/>
	
		<line fill="none" stroke="#EEEEEE" stroke-width="0.25" stroke-linecap="round" stroke-miterlimit="10" x1="4350.4" y1="185.5" x2="4415" y2="185.5"/>
	<path fill="none" stroke="#EEEEEE" stroke-width="0.25" stroke-linecap="round" stroke-miterlimit="10" d="M4359.4,274.6v-37.2
		 M4359.4,233v-38.5"/>
	
		<line fill="none" stroke="#EEEEEE" stroke-width="0.25" stroke-linecap="round" stroke-miterlimit="10" x1="4362.4" y1="121.5" x2="4362.4" y2="149.5"/>
	<polyline fill="none" stroke="#EEEEEE" stroke-width="0.25" stroke-linecap="round" stroke-miterlimit="10" points="4317.4,96.9 
		4317.4,105.5 4352,105.5 4352,96.9 	"/>
	<path fill="none" stroke="#EEEEEE" stroke-width="0.25" stroke-linecap="round" stroke-miterlimit="10" d="M4451.4,237.4h57
		 M4457.4,233h46.4 M4457.4,274.6h46.4 M4457.4,194.5h46.4"/>
	
		<line fill="none" stroke="#EEEEEE" stroke-width="0.25" stroke-linecap="round" stroke-miterlimit="10" x1="4446.8" y1="185.5" x2="4512.8" y2="185.5"/>
	<path fill="none" stroke="#EEEEEE" stroke-width="0.25" stroke-linecap="round" stroke-miterlimit="10" d="M4451.4,189.9h57
		 M4448.4,186.9h63"/>
	<path fill="none" stroke="#EEEEEE" stroke-width="0.25" stroke-linecap="round" stroke-miterlimit="10" d="M4415,185.5h31.8
		 M4431.2,185.5v9"/>
	<path fill="none" stroke="#EEEEEE" stroke-width="0.25" stroke-linecap="round" stroke-miterlimit="10" d="M4406,274.6v-37.2
		 M4406,233v-38.5 M4457.4,274.6v-37.2 M4457.4,233v-38.5"/>
	<polyline fill="none" stroke="#EEEEEE" stroke-width="0.25" stroke-linecap="round" stroke-miterlimit="10" points="4428.2,274.6 
		4434.2,274.6 4434.2,194.5 	"/>
	<polyline fill="none" stroke="#EEEEEE" stroke-width="0.25" stroke-linecap="round" stroke-miterlimit="10" points="4428.2,274.6 
		4428.2,194.5 4434.2,194.5 	"/>
	<path fill="none" stroke="#EEEEEE" stroke-width="0.25" stroke-linecap="round" stroke-miterlimit="10" d="M4528.8,185.5v9
		 M4512.8,185.5h31.9"/>
	<path fill="none" stroke="#EEEEEE" stroke-width="0.25" stroke-linecap="round" stroke-miterlimit="10" d="M4503.8,274.6v-37.2
		 M4503.8,233v-38.5 M4553.7,274.6v-37.2 M4553.7,233v-38.5"/>
	
		<line fill="none" stroke="#EEEEEE" stroke-width="0.25" stroke-linecap="round" stroke-miterlimit="10" x1="4531.8" y1="274.6" x2="4531.8" y2="194.5"/>
	<polyline fill="none" stroke="#EEEEEE" stroke-width="0.25" stroke-linecap="round" stroke-miterlimit="10" points="4525.8,194.5 
		4525.8,274.6 4531.8,274.6 	"/>
	<path fill="none" stroke="#EEEEEE" stroke-width="0.25" stroke-linecap="round" stroke-miterlimit="10" d="M4464.4,45.5H4328
		 M4525.8,194.5h6"/>
	<polyline fill="none" stroke="#EEEEEE" stroke-width="0.25" stroke-linecap="round" stroke-miterlimit="10" points="4464.4,29.6 
		4328,29.6 4328,45.5 	"/>
	<path fill="none" stroke="#EEEEEE" stroke-width="0.25" stroke-linecap="round" stroke-miterlimit="10" d="M4625.1,169.5v114.1
		 M4495.3,45.5v-16 M4464.4,45.5v-16"/>
	
		<line fill="none" stroke="#EEEEEE" stroke-width="0.25" stroke-linecap="round" stroke-miterlimit="10" x1="4622.1" y1="172.5" x2="4622.1" y2="283.6"/>
	<path fill="none" stroke="#EEEEEE" stroke-width="0.25" stroke-linecap="round" stroke-miterlimit="10" d="M4604.7,279.1v-89.2
		 M4607.7,282.1v-95.2"/>
	
		<line fill="none" stroke="#EEEEEE" stroke-width="0.25" stroke-linecap="round" stroke-miterlimit="10" x1="4609.3" y1="185.5" x2="4609.3" y2="283.6"/>
	<path fill="none" stroke="#EEEEEE" stroke-width="0.25" stroke-linecap="round" stroke-miterlimit="10" d="M4660.3,299.2V5.6"/>
	<path fill="none" stroke="#EEEEEE" stroke-width="0.25" stroke-linecap="round" stroke-miterlimit="10" d="M4600.3,274.6v-37.2
		 M4600.3,233v-38.5 M4648.3,277.6h12"/>
	<path fill="none" stroke="#EEEEEE" stroke-width="0.25" stroke-linecap="round" stroke-miterlimit="10" d="M4631.7,45.5l0-16
		 M4597.3,121.5v28"/>
	<path fill="none" stroke="#EEEEEE" stroke-width="0.25" stroke-linecap="round" stroke-miterlimit="10" d="M4528.6,198.4v-4
		 M4528.6,206.5v-4 M4528.6,214.5v-4.1 M4528.6,222.4v-4 M4528.6,230.5v-4 M4528.6,238.5v-4.1 M4528.6,246.4v-4 M4528.6,254.5v-4
		 M4528.6,262.5v-4.1 M4528.6,270.4v-4 M4528.6,274.6v-0.1 M4432.6,198.4v-4 M4432.6,206.5v-4 M4432.6,214.5v-4.1 M4432.6,222.4v-4
		 M4432.6,230.5v-4 M4432.6,238.5v-4.1 M4432.6,246.4v-4 M4432.6,254.5v-4 M4432.6,262.5v-4.1 M4432.6,270.4v-4 M4432.6,274.6v-0.1
		 M4525.8,274.5h6 M4428.2,274.5h6 M4525.8,270.4h6 M4428.2,270.4h6 M4525.8,266.5h6 M4428.2,266.5h6 M4525.8,262.5h6 M4428.2,262.5
		h6 M4525.8,258.4h6 M4428.2,258.4h6 M4525.8,254.5h6 M4428.2,254.5h6 M4525.8,250.5h6 M4428.2,250.5h6 M4525.8,246.4h6
		 M4428.2,246.4h6 M4525.8,242.5h6 M4428.2,242.5h6 M4525.8,238.5h6 M4428.2,238.5h6 M4525.8,234.4h6 M4428.2,234.4h6 M4525.8,230.5
		h6 M4428.2,230.5h6 M4525.8,226.5h6 M4428.2,226.5h6 M4525.8,222.4h6 M4428.2,222.4h6 M4525.8,218.5h6 M4428.2,218.5h6
		 M4525.8,214.5h6 M4428.2,214.5h6 M4525.8,210.4h6 M4428.2,210.4h6 M4525.8,206.5h6 M4428.2,206.5h6 M4525.8,202.5h6 M4428.2,202.5
		h6 M4525.8,198.4h6 M4428.2,198.4h6 M4525.8,194.5h6 M4428.2,194.5h6"/>
	<path fill="none" stroke="#EEEEEE" stroke-width="0.25" stroke-linecap="round" stroke-miterlimit="10" d="M4306,67.4h349.7
		 M4304,65.1h351.7"/>
	<path fill="none" stroke="#EEEEEE" stroke-width="0.25" stroke-linecap="round" stroke-miterlimit="10" d="M4312.4,76.6h334.9
		 M4311.6,75.5h336.6 M4311.1,75.2h337.4 M4311.1,74.7h337.4 M4306,67.9h347.6"/>
	
		<line fill="none" stroke="#EEEEEE" stroke-width="0.25" stroke-linecap="round" stroke-miterlimit="10" x1="4313" y1="77.2" x2="4647.3" y2="77.2"/>
	<polyline fill="none" stroke="#EEEEEE" stroke-width="0.25" stroke-linecap="round" stroke-miterlimit="10" points="4304,65.1 
		4304,67.4 4306,67.4 	"/>
	<polyline fill="none" stroke="#EEEEEE" stroke-width="0.25" stroke-linecap="round" stroke-miterlimit="10" points="4617.1,57.5 
		4342.6,57.5 4304,65.1 	"/>
	
		<line fill="none" stroke="#EEEEEE" stroke-width="0.25" stroke-linecap="round" stroke-miterlimit="10" x1="4352" y1="105.5" x2="4607.7" y2="105.5"/>
	<polyline fill="none" stroke="#EEEEEE" stroke-width="0.25" stroke-linecap="round" stroke-miterlimit="10" points="4308.8,71.3 
		4308.2,69.9 4307.2,68.7 4306,67.9 	"/>
	<polyline fill="none" stroke="#EEEEEE" stroke-width="0.25" stroke-linecap="round" stroke-miterlimit="10" points="4308.8,71.3 
		4309.2,72.7 4310,73.9 4311.1,74.7 	"/>
	<polyline fill="none" stroke="#EEEEEE" stroke-width="0.25" stroke-linecap="round" stroke-miterlimit="10" points="4311.7,76 
		4311.9,76.5 4312.4,76.6 4312.4,77.2 4313,77.2 	"/>
	<polyline fill="none" stroke="#EEEEEE" stroke-width="0.25" stroke-linecap="round" stroke-miterlimit="10" points="4311.1,75.2 
		4311.6,75.5 4311.7,76 	"/>
	<path fill="none" stroke="#EEEEEE" stroke-width="0.25" stroke-linecap="round" stroke-miterlimit="10" d="M4313,83.8v-6.6
		 M4306,67.9v-0.5 M4311.1,75.2v-0.5"/>
	
		<line fill="none" stroke="#EEEEEE" stroke-width="0.25" stroke-linecap="round" stroke-miterlimit="10" x1="4641.8" y1="87.5" x2="4641.8" y2="93.2"/>
	
		<line fill="none" stroke="#EEEEEE" stroke-width="0.25" stroke-linecap="round" stroke-miterlimit="10" x1="4645.6" y1="83.8" x2="4645.6" y2="96.9"/>
	<polyline fill="none" stroke="#EEEEEE" stroke-width="0.25" stroke-linecap="round" stroke-miterlimit="10" points="4642.3,96.9 
		4642.3,105.5 4607.7,105.5 4607.7,96.9 	"/>
	<polyline fill="none" stroke="#EEEEEE" stroke-width="0.25" stroke-linecap="round" stroke-miterlimit="10" points="4655.7,65.1 
		4655.7,67.4 4653.7,67.4 	"/>
	
		<line fill="none" stroke="#EEEEEE" stroke-width="0.25" stroke-linecap="round" stroke-miterlimit="10" x1="4655.7" y1="65.1" x2="4617.1" y2="57.5"/>
	<polyline fill="none" stroke="#EEEEEE" stroke-width="0.25" stroke-linecap="round" stroke-miterlimit="10" points="4653.7,67.9 
		4652.5,68.7 4651.5,69.9 4650.9,71.3 	"/>
	<polyline fill="none" stroke="#EEEEEE" stroke-width="0.25" stroke-linecap="round" stroke-miterlimit="10" points="4648.5,74.7 
		4649.7,73.9 4650.6,72.7 4650.9,71.3 	"/>
	<polyline fill="none" stroke="#EEEEEE" stroke-width="0.25" stroke-linecap="round" stroke-miterlimit="10" points="4647.3,76.6 
		4647.8,76.5 4648,76 	"/>
	<polyline fill="none" stroke="#EEEEEE" stroke-width="0.25" stroke-linecap="round" stroke-miterlimit="10" points="4647.3,76.6 
		4647.3,77.2 4646.7,77.2 	"/>
	<polyline fill="none" stroke="#EEEEEE" stroke-width="0.25" stroke-linecap="round" stroke-miterlimit="10" points="4648.5,75.2 
		4648.2,75.5 4648,76 	"/>
	<path fill="none" stroke="#EEEEEE" stroke-width="0.25" stroke-linecap="round" stroke-miterlimit="10" d="M4646.7,83.8v-6.6
		 M4653.7,67.9v-0.5 M4648.5,75.2v-0.5"/>
	<path fill="none" stroke="#EEEEEE" stroke-width="0.25" stroke-linecap="round" stroke-miterlimit="10" d="M4503.1,101.7h6
		 M4503.1,100.7h6 M4503.1,99.2h6 M4503.1,97.5h6"/>
	<polyline fill="none" stroke="#EEEEEE" stroke-width="0.25" stroke-linecap="round" stroke-miterlimit="10" points="4509.1,96.9 
		4509.1,102.5 4503.1,102.5 4503.1,96.9 	"/>
	<path fill="none" stroke="#EEEEEE" stroke-width="0.25" stroke-linecap="round" stroke-miterlimit="10" d="M4476.8,101.7h6
		 M4476.8,100.7h6 M4476.8,99.2h6 M4476.8,97.5h6"/>
	<polyline fill="none" stroke="#EEEEEE" stroke-width="0.25" stroke-linecap="round" stroke-miterlimit="10" points="4482.8,96.9 
		4482.8,102.5 4476.8,102.5 4476.8,96.9 	"/>
	<path fill="none" stroke="#EEEEEE" stroke-width="0.25" stroke-linecap="round" stroke-miterlimit="10" d="M4450.6,101.7h6
		 M4450.6,100.7h6 M4450.6,99.2h6 M4450.6,97.5h6"/>
	<polyline fill="none" stroke="#EEEEEE" stroke-width="0.25" stroke-linecap="round" stroke-miterlimit="10" points="4456.6,96.9 
		4456.6,102.5 4450.6,102.5 4450.6,96.9 	"/>
	<path fill="none" stroke="#EEEEEE" stroke-width="0.25" stroke-linecap="round" stroke-miterlimit="10" d="M4424.5,101.7h6
		 M4424.5,100.7h6 M4424.5,99.2h6 M4424.5,97.5h6"/>
	<polyline fill="none" stroke="#EEEEEE" stroke-width="0.25" stroke-linecap="round" stroke-miterlimit="10" points="4430.5,96.9 
		4430.5,102.5 4424.5,102.5 4424.5,96.9 	"/>
	<path fill="none" stroke="#EEEEEE" stroke-width="0.25" stroke-linecap="round" stroke-miterlimit="10" d="M4398.3,101.7h6
		 M4398.3,100.7h6 M4398.3,99.2h6 M4398.3,97.5h6"/>
	<polyline fill="none" stroke="#EEEEEE" stroke-width="0.25" stroke-linecap="round" stroke-miterlimit="10" points="4404.3,96.9 
		4404.3,102.5 4398.3,102.5 4398.3,96.9 	"/>
	<path fill="none" stroke="#EEEEEE" stroke-width="0.25" stroke-linecap="round" stroke-miterlimit="10" d="M4372.2,101.7h6
		 M4372.2,100.7h6 M4372.2,99.2h6 M4372.2,97.5h6"/>
	<polyline fill="none" stroke="#EEEEEE" stroke-width="0.25" stroke-linecap="round" stroke-miterlimit="10" points="4378.2,96.9 
		4378.2,102.5 4372.2,102.5 4372.2,96.9 	"/>
	<path fill="none" stroke="#EEEEEE" stroke-width="0.25" stroke-linecap="round" stroke-miterlimit="10" d="M4529.2,101.7h6
		 M4529.2,100.7h6 M4529.2,99.2h6 M4529.2,97.5h6"/>
	<polyline fill="none" stroke="#EEEEEE" stroke-width="0.25" stroke-linecap="round" stroke-miterlimit="10" points="4535.2,96.9 
		4535.2,102.5 4529.2,102.5 4529.2,96.9 	"/>
	<path fill="none" stroke="#EEEEEE" stroke-width="0.25" stroke-linecap="round" stroke-miterlimit="10" d="M4555.4,101.7h6
		 M4555.4,100.7h6 M4555.4,99.2h6 M4555.4,97.5h6"/>
	<polyline fill="none" stroke="#EEEEEE" stroke-width="0.25" stroke-linecap="round" stroke-miterlimit="10" points="4561.4,96.9 
		4561.4,102.5 4555.4,102.5 4555.4,96.9 	"/>
	<path fill="none" stroke="#EEEEEE" stroke-width="0.25" stroke-linecap="round" stroke-miterlimit="10" d="M4581.6,101.7h6
		 M4581.6,100.7h6 M4581.6,99.2h6 M4581.6,97.5h6"/>
	<polyline fill="none" stroke="#EEEEEE" stroke-width="0.25" stroke-linecap="round" stroke-miterlimit="10" points="4587.6,96.9 
		4587.6,102.5 4581.6,102.5 4581.6,96.9 	"/>
	<path fill="none" stroke="#EEEEEE" stroke-width="0.25" stroke-linecap="round" stroke-miterlimit="10" d="M4320,105.5v47.3
		 M4322.7,107.8v43.4 M4328,107.8v43.4"/>
	<polyline fill="none" stroke="#EEEEEE" stroke-width="0.25" stroke-linecap="round" stroke-miterlimit="10" points="4330.8,105.5 
		4330.8,152.8 4320,152.8 	"/>
	<path fill="none" stroke="#EEEEEE" stroke-width="0.25" stroke-linecap="round" stroke-miterlimit="10" d="M4328,110.8h-5.3
		 M4330.8,105.5H4320 M4328,113.8h-5.3 M4328,146.8h-5.3 M4328,151.3h-5.3"/>
	
		<line fill="none" stroke="#EEEEEE" stroke-width="0.25" stroke-linecap="round" stroke-miterlimit="10" x1="4328" y1="107.8" x2="4320" y2="107.8"/>
	<path fill="none" stroke="#EEEEEE" stroke-width="0.25" stroke-linecap="round" stroke-miterlimit="10" d="M4349.5,105.5v47.3
		 M4346.7,107.8v43.4 M4341.4,107.8v43.4 M4328,107.8h2.8"/>
	<polyline fill="none" stroke="#EEEEEE" stroke-width="0.25" stroke-linecap="round" stroke-miterlimit="10" points="4338.7,105.5 
		4338.7,152.8 4349.5,152.8 	"/>
	<path fill="none" stroke="#EEEEEE" stroke-width="0.25" stroke-linecap="round" stroke-miterlimit="10" d="M4341.4,110.8h5.3
		 M4338.7,105.5h10.8 M4341.4,113.8h5.3 M4341.4,146.8h5.3 M4341.4,151.3h5.3"/>
	
		<line fill="none" stroke="#EEEEEE" stroke-width="0.25" stroke-linecap="round" stroke-miterlimit="10" x1="4341.4" y1="107.8" x2="4349.5" y2="107.8"/>
	<path fill="none" stroke="#EEEEEE" stroke-width="0.25" stroke-linecap="round" stroke-miterlimit="10" d="M4639.8,105.5v47.3
		 M4637,107.8v43.4 M4631.7,107.8v43.4 M4341.4,107.8h-2.8"/>
	<polyline fill="none" stroke="#EEEEEE" stroke-width="0.25" stroke-linecap="round" stroke-miterlimit="10" points="4629,105.5 
		4629,152.8 4639.8,152.8 	"/>
	<path fill="none" stroke="#EEEEEE" stroke-width="0.25" stroke-linecap="round" stroke-miterlimit="10" d="M4631.7,110.8h5.3
		 M4629,105.5h10.8 M4631.7,113.8h5.3 M4631.7,146.8h5.3 M4631.7,151.3h5.3"/>
	
		<line fill="none" stroke="#EEEEEE" stroke-width="0.25" stroke-linecap="round" stroke-miterlimit="10" x1="4631.7" y1="107.8" x2="4639.8" y2="107.8"/>
	<path fill="none" stroke="#EEEEEE" stroke-width="0.25" stroke-linecap="round" stroke-miterlimit="10" d="M4610.1,105.5v47.3
		 M4613,107.8v43.4 M4618.3,107.8v43.4 M4631.7,107.8h-2.8"/>
	<polyline fill="none" stroke="#EEEEEE" stroke-width="0.25" stroke-linecap="round" stroke-miterlimit="10" points="4621,105.5 
		4621,152.8 4610.1,152.8 	"/>
	<path fill="none" stroke="#EEEEEE" stroke-width="0.25" stroke-linecap="round" stroke-miterlimit="10" d="M4618.3,110.8h-5.3
		 M4621,105.5h-10.9 M4618.3,113.8h-5.3 M4618.3,146.8h-5.3 M4618.3,151.3h-5.3"/>
	
		<line fill="none" stroke="#EEEEEE" stroke-width="0.25" stroke-linecap="round" stroke-miterlimit="10" x1="4618.3" y1="107.8" x2="4610.1" y2="107.8"/>
	
		<line fill="none" stroke="#EEEEEE" stroke-width="0.25" stroke-linecap="round" stroke-miterlimit="10" x1="4618.3" y1="107.8" x2="4621" y2="107.8"/>
	<polygon fill="none" stroke="#EEEEEE" stroke-width="0.25" stroke-linecap="round" stroke-miterlimit="10" points="4536.8,135.4 
		4546.3,125.9 4555.9,135.4 4546.3,145 	"/>
	<polygon fill="none" stroke="#EEEEEE" stroke-width="0.25" stroke-linecap="round" stroke-miterlimit="10" points="4470.3,135.4 
		4479.8,125.9 4489.4,135.4 4479.8,145 	"/>
	<polygon fill="none" stroke="#EEEEEE" stroke-width="0.25" stroke-linecap="round" stroke-miterlimit="10" points="4422.9,135.4 
		4413.3,125.9 4403.8,135.4 4413.3,145 	"/>
	<path fill="none" stroke="#EEEEEE" stroke-width="0.25" stroke-linecap="round" stroke-miterlimit="10" d="M4299.4,291.5h360.8
		 M4299.4,299.6h360.8"/>
	<polyline fill="none" stroke="#EEEEEE" stroke-width="0.25" stroke-linecap="round" stroke-miterlimit="10" points="4625.1,258.1 
		4628.1,258.1 4629.3,260.9 4631,263.6 4633,265.9 4635.4,267.9 4638.2,269.3 	"/>
	<polyline fill="none" stroke="#EEEEEE" stroke-width="0.25" stroke-linecap="round" stroke-miterlimit="10" points="4648.3,277.6 
		4648.2,277 4647.9,276.5 4647.7,276.1 4647.3,275.5 4647,275 4646.5,274.5 4646,274.1 4645.4,273.7 4644.7,273.3 4644.1,272.9 
		4643.2,272.6 4642.5,272.3 4641.7,272.1 4640.8,271.9 4640,271.7 4639,271.6 4638.2,271.6 4638.2,269.3 	"/>
	<path fill="none" stroke="#EEEEEE" stroke-width="0.25" stroke-linecap="round" stroke-miterlimit="10" d="M4334.5,258.1h-3
		 M4311.4,277.6h-12"/>
	<polyline fill="none" stroke="#EEEEEE" stroke-width="0.25" stroke-linecap="round" stroke-miterlimit="10" points="4321.5,269.3 
		4324.3,267.9 4326.7,265.9 4328.7,263.6 4330.4,260.9 4331.5,258.1 	"/>
	<polyline fill="none" stroke="#EEEEEE" stroke-width="0.25" stroke-linecap="round" stroke-miterlimit="10" points="4311.4,277.6 
		4311.6,277 4311.8,276.5 4312,276.1 4312.3,275.5 4312.8,275 4313.2,274.5 4313.7,274.1 4314.3,273.7 4314.9,273.3 4315.6,272.9 
		4316.4,272.6 4317.2,272.3 4318,272.1 4318.9,271.9 4319.7,271.7 4320.6,271.6 4321.5,271.6 4321.5,269.3 	"/>
	<path fill="none" stroke="#EEEEEE" stroke-width="0.25" stroke-linecap="round" stroke-miterlimit="10" d="M4318.6,23.1V19
		 M4318.6,31v-4 M4318.6,39.1v-4 M4318.6,47.1V43 M4318.6,55v-4 M4318.6,62.2v-3.1 M4318.6,111.1v-4 M4318.6,119.1V115 M4318.6,127
		v-4 M4318.6,135.1v-4 M4312.6,19v-1.4 M4312.6,27.1v-4 M4312.6,35.1V31 M4312.6,43v-4 M4312.6,51.1v-4 M4312.6,59.1V55
		 M4312.6,63.4v-0.4 M4312.6,83.1V79 M4312.6,91v-4 M4312.6,99.1v-4 M4312.6,107.1V103 M4312.6,115v-4 M4312.6,123.1v-4
		 M4312.6,131.1V127 M4312.6,135.4v-0.4 M4306.6,23.1V19 M4306.6,31v-4 M4306.6,39.1v-4 M4306.6,47.1V43 M4306.6,55v-4 M4306.6,63.1
		v-4 M4306.6,71.1v-2.9 M4306.6,79v-4 M4306.6,87.1v-4 M4306.6,95.1V91 M4306.6,103v-4 M4306.6,111.1v-4 M4306.6,119.1V115
		 M4306.6,127v-4 M4306.6,135.1v-4 M4300.6,19v-1.4 M4300.6,27.1v-4 M4300.6,35.1V31 M4300.6,43v-4 M4300.6,51.1v-4 M4300.6,59.1V55
		 M4300.6,67v-4 M4300.6,75.1v-4 M4300.6,83.1V79 M4300.6,91v-4 M4300.6,99.1v-4 M4300.6,107.1V103 M4300.6,115v-4 M4300.6,123.1v-4
		 M4300.6,131.1V127 M4300.6,135.4v-0.4 M4639.8,135.1h20.5 M4299.4,135.1h20.5 M4639.8,131.1h20.5 M4299.4,131.1h20.5 M4639.8,127
		h20.5 M4299.4,127h20.5 M4639.8,123.1h20.5 M4299.4,123.1h20.5 M4639.8,119.1h20.5 M4299.4,119.1h20.5 M4639.8,115h20.5
		 M4299.4,115h20.5 M4639.8,111.1h20.5 M4299.4,111.1h20.5 M4639.8,107.1h20.5 M4299.4,107.1h20.5 M4642.3,103h18 M4299.4,103h18
		 M4642.3,99.1h18 M4299.4,99.1h18 M4645.6,95.1h14.6 M4299.4,95.1h14.6 M4645.6,91h14.6 M4299.4,91h14.6 M4645.6,87.1h14.6
		 M4299.4,87.1h14.6 M4646.7,83.1h13.6 M4299.4,83.1h13.6 M4646.7,79h13.6 M4299.4,79h13.6 M4648.5,75.1h11.8 M4299.4,75.1h11.6
		 M4651,71.1h9.2 M4299.4,71.1h9.2 M4655.7,67h4.6 M4299.4,67h4.6 M4645.5,63.1h14.8 M4299.4,63.1h14.8 M4624.9,59.1h35.4
		 M4299.4,59.1h35.4 M4299.4,55h360.8 M4299.4,51.1h360.8 M4299.4,47.1h360.8 M4464.4,43h30.8 M4631.7,43h28.6 M4299.4,43h28.6
		 M4464.4,39.1h30.8 M4631.7,39.1h28.6 M4299.4,39.1h28.6 M4464.4,35.1h30.8 M4631.7,35.1h28.6 M4299.4,35.1h28.6 M4464.4,31h30.8
		 M4631.7,31h28.6 M4299.4,31h28.6 M4299.4,27.1h360.8 M4299.4,23.1h360.8 M4299.4,19h360.8 M4630.2,17.6v-12 M4600.2,17.6v-12
		 M4570,17.6v-12 M4539.9,17.6v-12 M4509.9,17.6v-12 M4479.8,17.6v-12 M4449.8,17.6v-12 M4419.7,17.6v-12 M4389.7,17.6v-12
		 M4359.6,17.6v-12 M4329.6,17.6v-12"/>
	<path fill="none" stroke="#EEEEEE" stroke-width="0.25" stroke-linecap="round" stroke-miterlimit="10" d="M4498.6,55v-4
		 M4492.6,19v-1.4 M4492.6,27.1v-4 M4492.6,35.1V31 M4492.6,43v-4 M4492.6,51.1v-4 M4492.6,57.5V55 M4486.6,23.1V19 M4486.6,31v-4
		 M4486.6,39.1v-4 M4486.6,47.1V43 M4486.6,55v-4 M4480.6,19v-1.4 M4480.6,27.1v-4 M4480.6,35.1V31 M4480.6,43v-4 M4480.6,51.1v-4
		 M4480.6,57.5V55 M4474.6,23.1V19 M4474.6,31v-4 M4474.6,39.1v-4 M4474.6,47.1V43 M4474.6,55v-4 M4468.6,19v-1.4 M4468.6,27.1v-4
		 M4468.6,35.1V31 M4468.6,43v-4 M4468.6,51.1v-4 M4468.6,57.5V55 M4462.6,23.1V19 M4462.6,29.6v-2.5 M4462.6,47.1v-1.6 M4462.6,55
		v-4 M4456.6,19v-1.4 M4456.6,27.1v-4 M4456.6,51.1v-4 M4456.6,57.5V55 M4450.6,23.1V19 M4450.6,29.6v-2.5 M4450.6,47.1v-1.6
		 M4450.6,55v-4 M4444.6,19v-1.4 M4444.6,27.1v-4 M4444.6,51.1v-4 M4444.6,57.5V55 M4438.6,23.1V19 M4438.6,29.6v-2.5 M4438.6,47.1
		v-1.6 M4438.6,55v-4 M4432.6,19v-1.4 M4432.6,27.1v-4 M4432.6,51.1v-4 M4432.6,57.5V55 M4426.6,23.1V19 M4426.6,29.6v-2.5
		 M4426.6,47.1v-1.6 M4426.6,55v-4 M4420.6,19v-1.4 M4420.6,27.1v-4 M4420.6,51.1v-4 M4420.6,57.5V55 M4414.6,23.1V19 M4414.6,29.6
		v-2.5 M4414.6,47.1v-1.6 M4414.6,55v-4 M4408.6,19v-1.4 M4408.6,27.1v-4 M4408.6,51.1v-4 M4408.6,57.5V55 M4402.6,23.1V19
		 M4402.6,29.6v-2.5 M4402.6,47.1v-1.6 M4402.6,55v-4 M4396.6,19v-1.4 M4396.6,27.1v-4 M4396.6,51.1v-4 M4396.6,57.5V55
		 M4390.6,23.1V19 M4390.6,29.6v-2.5 M4390.6,47.1v-1.6 M4390.6,55v-4 M4384.6,19v-1.4 M4384.6,27.1v-4 M4384.6,51.1v-4
		 M4384.6,57.5V55 M4378.6,23.1V19 M4378.6,29.6v-2.5 M4378.6,47.1v-1.6 M4378.6,55v-4 M4372.6,19v-1.4 M4372.6,27.1v-4
		 M4372.6,51.1v-4 M4372.6,57.5V55 M4366.6,23.1V19 M4366.6,29.6v-2.5 M4366.6,47.1v-1.6 M4366.6,55v-4 M4360.6,19v-1.4
		 M4360.6,27.1v-4 M4360.6,51.1v-4 M4360.6,57.5V55 M4354.6,23.1V19 M4354.6,29.6v-2.5 M4354.6,47.1v-1.6 M4354.6,55v-4 M4348.6,19
		v-1.4 M4348.6,27.1v-4 M4348.6,51.1v-4 M4348.6,57.5V55 M4342.6,23.1V19 M4342.6,29.6v-2.5 M4342.6,47.1v-1.6 M4342.6,55v-4
		 M4336.6,19v-1.4 M4336.6,27.1v-4 M4336.6,51.1v-4 M4336.6,58.7V55 M4330.6,23.1V19 M4330.6,29.6v-2.5 M4330.6,47.1v-1.6
		 M4330.6,55v-4 M4330.6,59.8v-0.7 M4324.6,19v-1.4 M4324.6,27.1v-4 M4324.6,35.1V31 M4324.6,43v-4 M4324.6,51.1v-4 M4324.6,59.1V55
		"/>
	<path fill="none" stroke="#EEEEEE" stroke-width="0.25" stroke-linecap="round" stroke-miterlimit="10" d="M4654.6,119.1V115
		 M4654.6,127v-4 M4654.6,135.1v-4 M4648.6,19v-1.4 M4648.6,27.1v-4 M4648.6,35.1V31 M4648.6,43v-4 M4648.6,51.1v-4 M4648.6,59.1V55
		 M4648.6,63.7v-0.6 M4648.6,75.1v-0.4 M4648.6,83.1V79 M4648.6,91v-4 M4648.6,99.1v-4 M4648.6,107.1V103 M4648.6,115v-4
		 M4648.6,123.1v-4 M4648.6,131.1V127 M4648.6,135.4v-0.4 M4642.6,23.1V19 M4642.6,31v-4 M4642.6,39.1v-4 M4642.6,47.1V43
		 M4642.6,55v-4 M4642.6,62.5v-3.4 M4642.6,103v-4 M4642.6,111.1v-4 M4642.6,119.1V115 M4642.6,127v-4 M4642.6,135.1v-4 M4636.6,19
		v-1.4 M4636.6,27.1v-4 M4636.6,35.1V31 M4636.6,43v-4 M4636.6,51.1v-4 M4636.6,59.1V55 M4630.6,23.1V19 M4630.6,29.6v-2.5
		 M4630.6,47.1v-1.6 M4630.6,55v-4 M4630.6,60.2v-1.1 M4624.6,19v-1.4 M4624.6,27.1v-4 M4624.6,51.1v-4 M4624.6,59v-4 M4618.6,23.1
		V19 M4618.6,29.6v-2.5 M4618.6,47.1v-1.6 M4618.6,55v-4 M4612.6,19v-1.4 M4612.6,27.1v-4 M4612.6,51.1v-4 M4612.6,57.5V55
		 M4606.6,23.1V19 M4606.6,29.6v-2.5 M4606.6,47.1v-1.6 M4606.6,55v-4 M4600.6,19v-1.4 M4600.6,27.1v-4 M4600.6,51.1v-4
		 M4600.6,57.5V55 M4594.6,23.1V19 M4594.6,29.6v-2.5 M4594.6,47.1v-1.6 M4594.6,55v-4 M4588.6,19v-1.4 M4588.6,27.1v-4
		 M4588.6,51.1v-4 M4588.6,57.5V55 M4582.6,23.1V19 M4582.6,29.6v-2.5 M4582.6,47.1v-1.6 M4582.6,55v-4 M4576.6,19v-1.4
		 M4576.6,27.1v-4 M4576.6,51.1v-4 M4576.6,57.5V55 M4570.6,23.1V19 M4570.6,29.6v-2.5 M4570.6,47.1v-1.6 M4570.6,55v-4 M4564.6,19
		v-1.4 M4564.6,27.1v-4 M4564.6,51.1v-4 M4564.6,57.5V55 M4558.6,23.1V19 M4558.6,29.6v-2.5 M4558.6,47.1v-1.6 M4558.6,55v-4
		 M4552.6,19v-1.4 M4552.6,27.1v-4 M4552.6,51.1v-4 M4552.6,57.5V55 M4546.6,23.1V19 M4546.6,29.6v-2.5 M4546.6,47.1v-1.6
		 M4546.6,55v-4 M4540.6,19v-1.4 M4540.6,27.1v-4 M4540.6,51.1v-4 M4540.6,57.5V55 M4534.6,23.1V19 M4534.6,29.6v-2.5 M4534.6,47.1
		v-1.6 M4534.6,55v-4 M4528.6,19v-1.4 M4528.6,27.1v-4 M4528.6,51.1v-4 M4528.6,57.5V55 M4522.6,23.1V19 M4522.6,29.6v-2.5
		 M4522.6,47.1v-1.6 M4522.6,55v-4 M4516.6,19v-1.4 M4516.6,27.1v-4 M4516.6,51.1v-4 M4516.6,57.5V55 M4510.6,23.1V19 M4510.6,29.6
		v-2.5 M4510.6,47.1v-1.6 M4510.6,55v-4 M4504.6,19v-1.4 M4504.6,27.1v-4 M4504.6,51.1v-4 M4504.6,57.5V55 M4498.6,23.1V19
		 M4498.6,29.6v-2.5 M4498.6,47.1v-1.6"/>
	<path fill="none" stroke="#EEEEEE" stroke-width="0.25" stroke-linecap="round" stroke-miterlimit="10" d="M4588.6,107.1v-1.6
		 M4588.6,115v-4 M4588.6,121.5v-2.4 M4582.6,111.1v-4 M4582.6,119.1V115 M4576.6,107.1v-1.6 M4576.6,115v-4 M4576.6,121.5v-2.4
		 M4570.6,111.1v-4 M4570.6,119.1V115 M4564.6,107.1v-1.6 M4564.6,115v-4 M4564.6,121.5v-2.4 M4558.6,111.1v-4 M4558.6,119.1V115
		 M4552.6,107.1v-1.6 M4552.6,115v-4 M4552.6,121.5v-2.4 M4546.6,111.1v-4 M4546.6,119.1V115 M4540.6,107.1v-1.6 M4540.6,115v-4
		 M4540.6,121.5v-2.4 M4534.6,111.1v-4 M4534.6,119.1V115 M4528.6,107.1v-1.6 M4528.6,115v-4 M4528.6,121.5v-2.4 M4522.6,111.1v-4
		 M4522.6,119.1V115 M4516.6,107.1v-1.6 M4516.6,115v-4 M4516.6,121.5v-2.4 M4510.6,111.1v-4 M4510.6,119.1V115 M4504.6,107.1v-1.6
		 M4504.6,115v-4 M4504.6,121.5v-2.4 M4498.6,111.1v-4 M4498.6,119.1V115 M4492.6,107.1v-1.6 M4492.6,115v-4 M4492.6,121.5v-2.4
		 M4486.6,111.1v-4 M4486.6,119.1V115 M4480.6,107.1v-1.6 M4480.6,115v-4 M4480.6,121.5v-2.4 M4474.6,111.1v-4 M4474.6,119.1V115
		 M4468.6,107.1v-1.6 M4468.6,115v-4 M4468.6,121.5v-2.4 M4462.6,111.1v-4 M4462.6,119.1V115 M4456.6,107.1v-1.6 M4456.6,115v-4
		 M4456.6,121.5v-2.4 M4450.6,111.1v-4 M4450.6,119.1V115 M4444.6,107.1v-1.6 M4444.6,115v-4 M4444.6,121.5v-2.4 M4438.6,111.1v-4
		 M4438.6,119.1V115 M4432.6,107.1v-1.6 M4432.6,115v-4 M4432.6,121.5v-2.4 M4426.6,111.1v-4 M4426.6,119.1V115 M4420.6,107.1v-1.6
		 M4420.6,115v-4 M4420.6,121.5v-2.4 M4414.6,111.1v-4 M4414.6,119.1V115 M4408.6,107.1v-1.6 M4408.6,115v-4 M4408.6,121.5v-2.4
		 M4402.6,111.1v-4 M4402.6,119.1V115 M4396.6,107.1v-1.6 M4396.6,115v-4 M4396.6,121.5v-2.4 M4390.6,111.1v-4 M4390.6,119.1V115
		 M4384.6,107.1v-1.6 M4384.6,115v-4 M4384.6,121.5v-2.4 M4378.6,111.1v-4 M4378.6,119.1V115 M4372.6,107.1v-1.6 M4372.6,115v-4
		 M4372.6,121.5v-2.4 M4366.6,111.1v-4 M4366.6,119.1V115 M4360.6,107.1v-1.6 M4360.6,115v-4 M4360.6,123.1v-4 M4360.6,131.1V127
		 M4360.6,135.4v-0.4 M4354.6,111.1v-4 M4354.6,119.1V115 M4354.6,127v-4 M4354.6,135.1v-4 M4597.3,135.1h12.8 M4349.5,135.1h13
		 M4597.3,131.1h12.8 M4349.5,131.1h13 M4597.3,127h12.8 M4349.5,127h13 M4597.3,123.1h12.8 M4349.5,123.1h13 M4349.5,119.1h260.6
		 M4349.5,115h260.6 M4349.5,111.1h260.6 M4349.5,107.1h260.6 M4654.6,23.1V19 M4654.6,31v-4 M4654.6,39.1v-4 M4654.6,47.1V43
		 M4654.6,55v-4 M4654.6,63.1v-4 M4654.6,71.1v-3.7 M4654.6,79v-4 M4654.6,87.1v-4 M4654.6,95.1V91 M4654.6,103v-4 M4654.6,111.1v-4
		"/>
	<path fill="none" stroke="#EEEEEE" stroke-width="0.25" stroke-linecap="round" stroke-miterlimit="10" d="M4306.6,143.1V139
		 M4306.6,151v-4 M4306.6,159.1v-4 M4306.6,167.1V163 M4306.6,175v-4 M4306.6,183.1v-4 M4306.6,191.1V187 M4306.6,199v-4
		 M4306.6,207.1v-4 M4306.6,215.1v-4 M4306.6,223.1v-4.1 M4306.6,231.1v-4 M4306.6,239.1v-4 M4306.6,247.1v-4.1 M4306.6,255.1v-4
		 M4306.6,263.1v-4 M4306.6,271.1v-4.1 M4306.6,277.6v-2.5 M4300.6,139v-3.6 M4300.6,147.1v-4 M4300.6,155.1V151 M4300.6,163v-4
		 M4300.6,171.1v-4 M4300.6,179.1V175 M4300.6,187v-4 M4300.6,195.1v-4 M4300.6,203.1V199 M4300.6,211.1v-4.1 M4300.6,219.1v-4
		 M4300.6,227.1v-4 M4300.6,235.1v-4.1 M4300.6,243.1v-4 M4300.6,251.1v-4 M4300.6,259.1v-4.1 M4300.6,267.1v-4 M4300.6,275.1v-4
		 M4647.1,275.1h13.2 M4299.4,275.1h13.2 M4638.2,271.1h22.1 M4299.4,271.1h22.1 M4634.4,267.1h25.9 M4299.4,267.1h25.8
		 M4630.6,263.1h29.6 M4299.4,263.1h29.6 M4628.5,259.1h31.8 M4299.4,259.1h31.8 M4625.1,255.1h35.2 M4299.4,255.1h35 M4625.1,251.1
		h35.2 M4299.4,251.1h35 M4625.1,247.1h35.2 M4299.4,247.1h35 M4625.1,243.1h35.2 M4299.4,243.1h35 M4625.1,239.1h35.2
		 M4299.4,239.1h35 M4625.1,235.1h35.2 M4299.4,235.1h35 M4625.1,231.1h35.2 M4299.4,231.1h35 M4625.1,227.1h35.2 M4299.4,227.1h35
		 M4625.1,223.1h35.2 M4299.4,223.1h35 M4625.1,219.1h35.2 M4299.4,219.1h35 M4625.1,215.1h35.2 M4299.4,215.1h35 M4625.1,211.1
		h35.2 M4299.4,211.1h35 M4625.1,207.1h35.2 M4299.4,207.1h35 M4625.1,203.1h35.2 M4299.4,203.1h35 M4625.1,199h35.2 M4299.4,199h35
		 M4625.1,195.1h35.2 M4299.4,195.1h35 M4625.1,191.1h35.2 M4299.4,191.1h35 M4625.1,187h35.2 M4299.4,187h35 M4625.1,183.1h35.2
		 M4299.4,183.1h35 M4625.1,179.1h35.2 M4299.4,179.1h35 M4625.1,175h35.2 M4299.4,175h35 M4625.1,171.1h35.2 M4299.4,171.1h35
		 M4299.4,167.1h360.8 M4299.4,163h360.8 M4299.4,159.1h360.8 M4299.4,155.1h360.8 M4349.5,151h260.6 M4621,151h7.9 M4330.8,151h7.9
		 M4639.8,151h20.5 M4299.4,151h20.5 M4597.3,147.1h12.8 M4349.5,147.1h13 M4621,147.1h7.9 M4330.8,147.1h7.9 M4639.8,147.1h20.5
		 M4299.4,147.1h20.5 M4597.3,143.1h12.8 M4349.5,143.1h13 M4621,143.1h7.9 M4330.8,143.1h7.9 M4639.8,143.1h20.5 M4299.4,143.1
		h20.5 M4597.3,139h12.8 M4349.5,139h13 M4621,139h7.9 M4330.8,139h7.9 M4639.8,139h20.5 M4299.4,139h20.5 M4606.6,111.1v-4
		 M4606.6,119.1V115 M4606.6,127v-4 M4606.6,135.1v-4 M4600.6,107.1v-1.6 M4600.6,115v-4 M4600.6,123.1v-4 M4600.6,131.1V127
		 M4600.6,135.4v-0.4 M4594.6,111.1v-4 M4594.6,119.1V115"/>
	<path fill="none" stroke="#EEEEEE" stroke-width="0.25" stroke-linecap="round" stroke-miterlimit="10" d="M4450.6,151v-1.6
		 M4450.6,159.1v-4 M4450.6,167.1V163 M4444.6,155.1V151 M4444.6,163v-4 M4444.6,169.5v-2.4 M4438.6,151v-1.6 M4438.6,159.1v-4
		 M4438.6,167.1V163 M4432.6,155.1V151 M4432.6,163v-4 M4432.6,169.5v-2.4 M4426.6,151v-1.6 M4426.6,159.1v-4 M4426.6,167.1V163
		 M4420.6,155.1V151 M4420.6,163v-4 M4420.6,169.5v-2.4 M4414.6,151v-1.6 M4414.6,159.1v-4 M4414.6,167.1V163 M4408.6,155.1V151
		 M4408.6,163v-4 M4408.6,169.5v-2.4 M4402.6,151v-1.6 M4402.6,159.1v-4 M4402.6,167.1V163 M4396.6,155.1V151 M4396.6,163v-4
		 M4396.6,169.5v-2.4 M4390.6,151v-1.6 M4390.6,159.1v-4 M4390.6,167.1V163 M4384.6,155.1V151 M4384.6,163v-4 M4384.6,169.5v-2.4
		 M4378.6,151v-1.6 M4378.6,159.1v-4 M4378.6,167.1V163 M4372.6,155.1V151 M4372.6,163v-4 M4372.6,169.5v-2.4 M4366.6,151v-1.6
		 M4366.6,159.1v-4 M4366.6,167.1V163 M4360.6,139v-3.6 M4360.6,147.1v-4 M4360.6,155.1V151 M4360.6,163v-4 M4360.6,169.5v-2.4
		 M4354.6,143.1V139 M4354.6,151v-4 M4354.6,159.1v-4 M4354.6,167.1V163 M4348.6,155.1v-2.3 M4348.6,163v-4 M4348.6,169.5v-2.4
		 M4342.6,159.1v-4 M4342.6,167.1V163 M4336.6,139v-3.6 M4336.6,147.1v-4 M4336.6,155.1V151 M4336.6,163v-4 M4336.6,169.5v-2.4
		 M4330.6,159.1v-4 M4330.6,167.1V163 M4330.6,175v-4 M4330.6,183.1v-4 M4330.6,191.1V187 M4330.6,199v-4 M4330.6,207.1v-4
		 M4330.6,215.1v-4 M4330.6,223.1v-4.1 M4330.6,231.1v-4 M4330.6,239.1v-4 M4330.6,247.1v-4.1 M4330.6,255.1v-4 M4330.6,260.5v-1.3
		 M4324.6,155.1v-2.3 M4324.6,163v-4 M4324.6,171.1v-4 M4324.6,179.1V175 M4324.6,187v-4 M4324.6,195.1v-4 M4324.6,203.1V199
		 M4324.6,211.1v-4.1 M4324.6,219.1v-4 M4324.6,227.1v-4 M4324.6,235.1v-4.1 M4324.6,243.1v-4 M4324.6,251.1v-4 M4324.6,259.1v-4.1
		 M4324.6,267.1v-4 M4318.6,143.1V139 M4318.6,151v-4 M4318.6,159.1v-4 M4318.6,167.1V163 M4318.6,175v-4 M4318.6,183.1v-4
		 M4318.6,191.1V187 M4318.6,199v-4 M4318.6,207.1v-4 M4318.6,215.1v-4 M4318.6,223.1v-4.1 M4318.6,231.1v-4 M4318.6,239.1v-4
		 M4318.6,247.1v-4.1 M4318.6,255.1v-4 M4318.6,263.1v-4 M4318.6,271.1v-4.1 M4312.6,139v-3.6 M4312.6,147.1v-4 M4312.6,155.1V151
		 M4312.6,163v-4 M4312.6,171.1v-4 M4312.6,179.1V175 M4312.6,187v-4 M4312.6,195.1v-4 M4312.6,203.1V199 M4312.6,211.1v-4.1
		 M4312.6,219.1v-4 M4312.6,227.1v-4 M4312.6,235.1v-4.1 M4312.6,243.1v-4 M4312.6,251.1v-4 M4312.6,259.1v-4.1 M4312.6,267.1v-4
		 M4312.6,275.1v-4"/>
	<path fill="none" stroke="#EEEEEE" stroke-width="0.25" stroke-linecap="round" stroke-miterlimit="10" d="M4642.6,215.1v-4
		 M4642.6,223.1v-4.1 M4642.6,231.1v-4 M4642.6,239.1v-4 M4642.6,247.1v-4.1 M4642.6,255.1v-4 M4642.6,263.1v-4 M4642.6,271.1v-4.1
		 M4636.6,155.1v-2.3 M4636.6,163v-4 M4636.6,171.1v-4 M4636.6,179.1V175 M4636.6,187v-4 M4636.6,195.1v-4 M4636.6,203.1V199
		 M4636.6,211.1v-4.1 M4636.6,219.1v-4 M4636.6,227.1v-4 M4636.6,235.1v-4.1 M4636.6,243.1v-4 M4636.6,251.1v-4 M4636.6,259.1v-4.1
		 M4636.6,267.1v-4 M4630.6,159.1v-4 M4630.6,167.1V163 M4630.6,175v-4 M4630.6,183.1v-4 M4630.6,191.1V187 M4630.6,199v-4
		 M4630.6,207.1v-4 M4630.6,215.1v-4 M4630.6,223.1v-4.1 M4630.6,231.1v-4 M4630.6,239.1v-4 M4630.6,247.1v-4.1 M4630.6,255.1v-4
		 M4630.6,263.1v-4 M4624.6,139v-3.6 M4624.6,147.1v-4 M4624.6,155.1V151 M4624.6,163v-4 M4624.6,169.5v-2.4 M4618.6,159.1v-4
		 M4618.6,167.1V163 M4612.6,155.1v-2.3 M4612.6,163v-4 M4612.6,169.5v-2.4 M4606.6,143.1V139 M4606.6,151v-4 M4606.6,159.1v-4
		 M4606.6,167.1V163 M4600.6,139v-3.6 M4600.6,147.1v-4 M4600.6,155.1V151 M4600.6,163v-4 M4600.6,169.5v-2.4 M4594.6,151v-1.6
		 M4594.6,159.1v-4 M4594.6,167.1V163 M4588.6,155.1V151 M4588.6,163v-4 M4588.6,169.5v-2.4 M4582.6,151v-1.6 M4582.6,159.1v-4
		 M4582.6,167.1V163 M4576.6,155.1V151 M4576.6,163v-4 M4576.6,169.5v-2.4 M4570.6,151v-1.6 M4570.6,159.1v-4 M4570.6,167.1V163
		 M4564.6,155.1V151 M4564.6,163v-4 M4564.6,169.5v-2.4 M4558.6,151v-1.6 M4558.6,159.1v-4 M4558.6,167.1V163 M4552.6,155.1V151
		 M4552.6,163v-4 M4552.6,169.5v-2.4 M4546.6,151v-1.6 M4546.6,159.1v-4 M4546.6,167.1V163 M4540.6,155.1V151 M4540.6,163v-4
		 M4540.6,169.5v-2.4 M4534.6,151v-1.6 M4534.6,159.1v-4 M4534.6,167.1V163 M4528.6,155.1V151 M4528.6,163v-4 M4528.6,169.5v-2.4
		 M4522.6,151v-1.6 M4522.6,159.1v-4 M4522.6,167.1V163 M4516.6,155.1V151 M4516.6,163v-4 M4516.6,169.5v-2.4 M4510.6,151v-1.6
		 M4510.6,159.1v-4 M4510.6,167.1V163 M4504.6,155.1V151 M4504.6,163v-4 M4504.6,169.5v-2.4 M4498.6,151v-1.6 M4498.6,159.1v-4
		 M4498.6,167.1V163 M4492.6,155.1V151 M4492.6,163v-4 M4492.6,169.5v-2.4 M4486.6,151v-1.6 M4486.6,159.1v-4 M4486.6,167.1V163
		 M4480.6,155.1V151 M4480.6,163v-4 M4480.6,169.5v-2.4 M4474.6,151v-1.6 M4474.6,159.1v-4 M4474.6,167.1V163 M4468.6,155.1V151
		 M4468.6,163v-4 M4468.6,169.5v-2.4 M4462.6,151v-1.6 M4462.6,159.1v-4 M4462.6,167.1V163 M4456.6,155.1V151 M4456.6,163v-4
		 M4456.6,169.5v-2.4"/>
	<path fill="none" stroke="#EEEEEE" stroke-width="0.25" stroke-linecap="round" stroke-miterlimit="10" d="M4372.6,147.1v-4
		 M4366.6,127v-4 M4366.6,135.1v-4 M4366.6,143.1V139 M4366.6,149.5v-2.4 M4362.4,147.1h234.8 M4481.8,143.1h62.5 M4415.4,143.1
		h62.5 M4548.2,143.1h49.1 M4362.4,143.1h49 M4485.8,139h54.6 M4419.3,139h54.6 M4552.3,139h45 M4362.4,139h45 M4489,135.1h48.1
		 M4422.6,135.1h48.1 M4555.5,135.1h41.8 M4362.4,135.1h41.8 M4485,131.1h56.2 M4418.5,131.1h56.2 M4551.4,131.1h45.8 M4362.4,131.1
		h45.7 M4481,127h64.2 M4414.5,127h64.2 M4547.5,127h49.8 M4362.4,127h49.8 M4362.4,123.1h234.8 M4624.6,107.1v-1.6 M4624.6,115v-4
		 M4624.6,123.1v-4 M4624.6,131.1V127 M4624.6,135.4v-0.4 M4336.6,107.1v-1.6 M4336.6,115v-4 M4336.6,123.1v-4 M4336.6,131.1V127
		 M4336.6,135.4v-0.4 M4621,135.1h7.9 M4330.8,135.1h7.9 M4621,131.1h7.9 M4330.8,131.1h7.9 M4621,127h7.9 M4330.8,127h7.9
		 M4621,123.1h7.9 M4330.8,123.1h7.9 M4621,119.1h7.9 M4330.8,119.1h7.9 M4621,115h7.9 M4330.8,115h7.9 M4621,111.1h7.9
		 M4330.8,111.1h7.9 M4621,107.1h7.9 M4330.8,107.1h7.9 M4654.6,143.1V139 M4654.6,151v-4 M4654.6,159.1v-4 M4654.6,167.1V163
		 M4654.6,175v-4 M4654.6,183.1v-4 M4654.6,191.1V187 M4654.6,199v-4 M4654.6,207.1v-4 M4654.6,215.1v-4 M4654.6,223.1v-4.1
		 M4654.6,231.1v-4 M4654.6,239.1v-4 M4654.6,247.1v-4.1 M4654.6,255.1v-4 M4654.6,263.1v-4 M4654.6,271.1v-4.1 M4654.6,277.6v-2.5
		 M4648.6,139v-3.6 M4648.6,147.1v-4 M4648.6,155.1V151 M4648.6,163v-4 M4648.6,171.1v-4 M4648.6,179.1V175 M4648.6,187v-4
		 M4648.6,195.1v-4 M4648.6,203.1V199 M4648.6,211.1v-4.1 M4648.6,219.1v-4 M4648.6,227.1v-4 M4648.6,235.1v-4.1 M4648.6,243.1v-4
		 M4648.6,251.1v-4 M4648.6,259.1v-4.1 M4648.6,267.1v-4 M4648.6,275.1v-4 M4642.6,143.1V139 M4642.6,151v-4 M4642.6,159.1v-4
		 M4642.6,167.1V163 M4642.6,175v-4 M4642.6,183.1v-4 M4642.6,191.1V187 M4642.6,199v-4 M4642.6,207.1v-4"/>
	
		<line fill="none" stroke="#EEEEEE" stroke-width="0.25" stroke-linecap="round" stroke-miterlimit="10" x1="4372.6" y1="139" x2="4372.6" y2="135.1"/>
	<path fill="none" stroke="#EEEEEE" stroke-width="0.25" stroke-linecap="round" stroke-miterlimit="10" d="M4384.6,147.1v-4
		 M4378.6,127v-4 M4378.6,135.1v-4 M4378.6,143.1V139 M4378.6,149.5v-2.4 M4372.6,123.1v-1.6 M4372.6,131.1V127"/>
	
		<line fill="none" stroke="#EEEEEE" stroke-width="0.25" stroke-linecap="round" stroke-miterlimit="10" x1="4384.6" y1="139" x2="4384.6" y2="135.1"/>
	<path fill="none" stroke="#EEEEEE" stroke-width="0.25" stroke-linecap="round" stroke-miterlimit="10" d="M4396.6,147.1v-4
		 M4390.6,127v-4 M4390.6,135.1v-4 M4390.6,143.1V139 M4390.6,149.5v-2.4 M4384.6,123.1v-1.6 M4384.6,131.1V127"/>
	
		<line fill="none" stroke="#EEEEEE" stroke-width="0.25" stroke-linecap="round" stroke-miterlimit="10" x1="4396.6" y1="139" x2="4396.6" y2="135.1"/>
	<path fill="none" stroke="#EEEEEE" stroke-width="0.25" stroke-linecap="round" stroke-miterlimit="10" d="M4432.6,147.1v-4
		 M4426.6,127v-4 M4426.6,135.1v-4 M4426.6,143.1V139 M4426.6,149.5v-2.4 M4420.6,123.1v-1.6 M4420.6,131.1V127 M4420.6,139v-1.2
		 M4420.6,147.1v-4 M4414.6,127v-4 M4414.6,149.5v-2.4 M4408.6,123.1v-1.6 M4408.6,130.6V127 M4408.6,147.1v-4 M4402.6,127v-4
		 M4402.6,135.1v-4 M4402.6,143.1V139 M4402.6,149.5v-2.4 M4396.6,123.1v-1.6 M4396.6,131.1V127"/>
	
		<line fill="none" stroke="#EEEEEE" stroke-width="0.25" stroke-linecap="round" stroke-miterlimit="10" x1="4432.6" y1="139" x2="4432.6" y2="135.1"/>
	<path fill="none" stroke="#EEEEEE" stroke-width="0.25" stroke-linecap="round" stroke-miterlimit="10" d="M4444.6,147.1v-4
		 M4438.6,127v-4 M4438.6,135.1v-4 M4438.6,143.1V139 M4438.6,149.5v-2.4 M4432.6,123.1v-1.6 M4432.6,131.1V127"/>
	
		<line fill="none" stroke="#EEEEEE" stroke-width="0.25" stroke-linecap="round" stroke-miterlimit="10" x1="4444.6" y1="139" x2="4444.6" y2="135.1"/>
	<path fill="none" stroke="#EEEEEE" stroke-width="0.25" stroke-linecap="round" stroke-miterlimit="10" d="M4456.6,147.1v-4
		 M4450.6,127v-4 M4450.6,135.1v-4 M4450.6,143.1V139 M4450.6,149.5v-2.4 M4444.6,123.1v-1.6 M4444.6,131.1V127"/>
	
		<line fill="none" stroke="#EEEEEE" stroke-width="0.25" stroke-linecap="round" stroke-miterlimit="10" x1="4456.6" y1="139" x2="4456.6" y2="135.1"/>
	<path fill="none" stroke="#EEEEEE" stroke-width="0.25" stroke-linecap="round" stroke-miterlimit="10" d="M4468.6,147.1v-4
		 M4462.6,127v-4 M4462.6,135.1v-4 M4462.6,143.1V139 M4462.6,149.5v-2.4 M4456.6,123.1v-1.6 M4456.6,131.1V127"/>
	
		<line fill="none" stroke="#EEEEEE" stroke-width="0.25" stroke-linecap="round" stroke-miterlimit="10" x1="4468.6" y1="139" x2="4468.6" y2="135.1"/>
	<path fill="none" stroke="#EEEEEE" stroke-width="0.25" stroke-linecap="round" stroke-miterlimit="10" d="M4474.6,143.1v-3.4
		 M4474.6,149.5v-2.4 M4468.6,123.1v-1.6 M4468.6,131.1V127"/>
	
		<line fill="none" stroke="#EEEEEE" stroke-width="0.25" stroke-linecap="round" stroke-miterlimit="10" x1="4474.6" y1="131.1" x2="4474.8" y2="131.1"/>
	<path fill="none" stroke="#EEEEEE" stroke-width="0.25" stroke-linecap="round" stroke-miterlimit="10" d="M4492.6,147.1v-4
		 M4486.6,127v-4 M4486.6,132.7v-1.6 M4486.6,143.1V139 M4486.6,149.5v-2.4 M4480.6,123.1v-1.6 M4480.6,147.1v-2.9 M4474.6,127v-4"
		/>
	
		<line fill="none" stroke="#EEEEEE" stroke-width="0.25" stroke-linecap="round" stroke-miterlimit="10" x1="4492.6" y1="139" x2="4492.6" y2="135.1"/>
	<path fill="none" stroke="#EEEEEE" stroke-width="0.25" stroke-linecap="round" stroke-miterlimit="10" d="M4504.6,147.1v-4
		 M4498.6,127v-4 M4498.6,135.1v-4 M4498.6,143.1V139 M4498.6,149.5v-2.4 M4492.6,123.1v-1.6 M4492.6,131.1V127"/>
	
		<line fill="none" stroke="#EEEEEE" stroke-width="0.25" stroke-linecap="round" stroke-miterlimit="10" x1="4504.6" y1="139" x2="4504.6" y2="135.1"/>
	<path fill="none" stroke="#EEEEEE" stroke-width="0.25" stroke-linecap="round" stroke-miterlimit="10" d="M4516.6,147.1v-4
		 M4510.6,127v-4 M4510.6,135.1v-4 M4510.6,143.1V139 M4510.6,149.5v-2.4 M4504.6,123.1v-1.6 M4504.6,131.1V127"/>
	
		<line fill="none" stroke="#EEEEEE" stroke-width="0.25" stroke-linecap="round" stroke-miterlimit="10" x1="4516.6" y1="139" x2="4516.6" y2="135.1"/>
	<path fill="none" stroke="#EEEEEE" stroke-width="0.25" stroke-linecap="round" stroke-miterlimit="10" d="M4528.6,147.1v-4
		 M4522.6,127v-4 M4522.6,135.1v-4 M4522.6,143.1V139 M4522.6,149.5v-2.4 M4516.6,123.1v-1.6 M4516.6,131.1V127"/>
	
		<line fill="none" stroke="#EEEEEE" stroke-width="0.25" stroke-linecap="round" stroke-miterlimit="10" x1="4528.6" y1="139" x2="4528.6" y2="135.1"/>
	<path fill="none" stroke="#EEEEEE" stroke-width="0.25" stroke-linecap="round" stroke-miterlimit="10" d="M4564.6,147.1v-4
		 M4558.6,127v-4 M4558.6,135.1v-4 M4558.6,143.1V139 M4558.6,149.5v-2.4 M4552.6,123.1v-1.6 M4552.6,131.1V127 M4552.6,139v-0.4
		 M4552.6,147.1v-4 M4546.6,126.2v-3.1 M4546.6,149.5v-2.4 M4540.6,123.1v-1.6 M4540.6,131.1V127 M4540.6,147.1v-4 M4534.6,127v-4
		 M4534.6,135.1v-4 M4534.6,143.1V139 M4534.6,149.5v-2.4 M4528.6,123.1v-1.6 M4528.6,131.1V127"/>
	
		<line fill="none" stroke="#EEEEEE" stroke-width="0.25" stroke-linecap="round" stroke-miterlimit="10" x1="4564.6" y1="139" x2="4564.6" y2="135.1"/>
	<path fill="none" stroke="#EEEEEE" stroke-width="0.25" stroke-linecap="round" stroke-miterlimit="10" d="M4576.6,147.1v-4
		 M4570.6,127v-4 M4570.6,135.1v-4 M4570.6,143.1V139 M4570.6,149.5v-2.4 M4564.6,123.1v-1.6 M4564.6,131.1V127"/>
	
		<line fill="none" stroke="#EEEEEE" stroke-width="0.25" stroke-linecap="round" stroke-miterlimit="10" x1="4576.6" y1="139" x2="4576.6" y2="135.1"/>
	<path fill="none" stroke="#EEEEEE" stroke-width="0.25" stroke-linecap="round" stroke-miterlimit="10" d="M4588.6,147.1v-4
		 M4582.6,127v-4 M4582.6,135.1v-4 M4582.6,143.1V139 M4582.6,149.5v-2.4 M4576.6,123.1v-1.6 M4576.6,131.1V127"/>
	
		<line fill="none" stroke="#EEEEEE" stroke-width="0.25" stroke-linecap="round" stroke-miterlimit="10" x1="4588.6" y1="139" x2="4588.6" y2="135.1"/>
	<path fill="none" stroke="#EEEEEE" stroke-width="0.25" stroke-linecap="round" stroke-miterlimit="10" d="M4630.6,45.5l0-2.5
		 M4624.6,35.1V31 M4624.6,43v-4 M4618.6,31v-1.4 M4618.6,39.1v-4 M4618.6,45.5l0-2.5 M4612.6,35.1V31 M4612.6,43v-4 M4606.6,31
		v-1.4 M4606.6,39.1v-4 M4606.6,45.5V43 M4600.6,35.1V31 M4600.6,43v-4 M4594.6,31v-1.4 M4594.6,39.1v-4 M4594.6,45.5V43
		 M4588.6,35.1V31 M4588.6,43v-4 M4582.6,31v-1.4 M4582.6,39.1v-4 M4582.6,45.5V43 M4576.6,35.1V31 M4576.6,43v-4 M4570.6,31v-1.4
		 M4570.6,39.1v-4 M4570.6,45.5V43 M4564.6,35.1V31 M4564.6,43v-4 M4558.6,31v-1.4 M4558.6,39.1v-4 M4558.6,45.5V43 M4552.6,35.1V31
		 M4552.6,43v-4 M4546.6,31v-1.4 M4546.6,39.1v-4 M4546.6,45.5V43 M4540.6,35.1V31 M4540.6,43v-4 M4534.6,31v-1.4 M4534.6,39.1v-4
		 M4534.6,45.5V43 M4528.6,35.1V31 M4528.6,43v-4 M4522.6,31v-1.4 M4522.6,39.1v-4 M4522.6,45.5V43 M4516.6,35.1V31 M4516.6,43v-4
		 M4510.6,31v-1.4 M4510.6,39.1v-4 M4510.6,45.5V43 M4504.6,35.1V31 M4504.6,43v-4 M4498.6,31v-1.4 M4498.6,39.1v-4 M4498.6,45.5V43
		 M4462.6,31v-1.4 M4462.6,39.1v-4 M4462.6,45.5V43 M4456.6,35.1V31 M4456.6,43v-4 M4450.6,31v-1.4 M4450.6,39.1v-4 M4450.6,45.5V43
		 M4444.6,35.1V31 M4444.6,43v-4 M4438.6,31v-1.4 M4438.6,39.1v-4 M4438.6,45.5V43 M4432.6,35.1V31 M4432.6,43v-4 M4426.6,31v-1.4
		 M4426.6,39.1v-4 M4426.6,45.5V43 M4420.6,35.1V31 M4420.6,43v-4 M4414.6,31v-1.4 M4414.6,39.1v-4 M4414.6,45.5V43 M4408.6,35.1V31
		 M4408.6,43v-4 M4402.6,31v-1.4 M4402.6,39.1v-4 M4402.6,45.5V43 M4396.6,35.1V31 M4396.6,43v-4 M4390.6,31v-1.4 M4390.6,39.1v-4
		 M4390.6,45.5V43 M4384.6,35.1V31 M4384.6,43v-4 M4378.6,31v-1.4 M4378.6,39.1v-4 M4378.6,45.5V43 M4372.6,35.1V31 M4372.6,43v-4
		 M4366.6,31v-1.4 M4366.6,39.1v-4 M4366.6,45.5V43 M4360.6,35.1V31 M4360.6,43v-4 M4354.6,31v-1.4 M4354.6,39.1v-4 M4354.6,45.5V43
		 M4348.6,35.1V31 M4348.6,43v-4 M4342.6,31v-1.4 M4342.6,39.1v-4 M4342.6,45.5V43 M4336.6,35.1V31 M4336.6,43v-4 M4330.6,31v-1.4
		 M4330.6,39.1v-4 M4330.6,45.5V43 M4495.3,43h136.4 M4328,43h136.4 M4495.3,39.1h136.4 M4328,39.1h136.4 M4495.3,35.1h136.4
		 M4328,35.1h136.4 M4495.3,31h136.4 M4328,31h136.4 M4594.6,127v-4 M4594.6,135.1v-4 M4594.6,143.1V139 M4594.6,149.5v-2.4
		 M4588.6,123.1v-1.6 M4588.6,131.1V127"/>
	<path fill="none" stroke="#EEEEEE" stroke-width="0.25" stroke-linecap="round" stroke-miterlimit="10" d="M4630.6,31v-1.4
		 M4630.6,39.1v-4"/>
	<path fill="none" stroke="#EEEEEE" stroke-width="0.25" stroke-linecap="round" stroke-miterlimit="10" d="M4334.5,283.6v16
		 M4358.7,283.6v16 M4383,283.6v16 M4407.2,283.6v16 M4431.4,283.6v16 M4455.7,283.6v16 M4479.8,283.6v16 M4504,283.6v16
		 M4528.3,283.6v16 M4552.5,283.6v16 M4576.8,283.6v16 M4601,283.6v16 M4625.1,283.6v16"/></g></svg>