<svg><g><path fill="none" stroke="#EEEEEE" stroke-width="0.25" stroke-linecap="round" stroke-miterlimit="10" d="M4334.4,334.6h288.8
		 M4348,348.1h261.7 M4351,385.6h255.7"/>
	<path fill="none" stroke="#EEEEEE" stroke-width="0.25" stroke-linecap="round" stroke-miterlimit="10" d="M4539.3,378.1h63
		 M4539.3,355.6h63"/>
	<path fill="none" stroke="#EEEEEE" stroke-width="0.25" stroke-linecap="round" stroke-miterlimit="10" d="M4298.4,508.4V301.2
		 M4298.4,301.2 M4659.3,301.2 M4659.3,507.7h-18 M4639,485.3h-320.3 M4659.3,483.1h-360.8 M4331.4,331.6h294.8 M4351,351.1h255.7
		 M4351,382.6h255.7 M4351,388.6h255.7"/>
	<path fill="none" stroke="#EEEEEE" stroke-width="0.25" stroke-linecap="round" stroke-miterlimit="10" d="M4348,483.1v-135
		 M4425.3,391.6v91.4 M4440.6,483.1v-91.4"/>
	<path fill="none" stroke="#EEEEEE" stroke-width="0.25" stroke-linecap="round" stroke-miterlimit="10" d="M4351,483.1v-132
		 M4534.7,483.1v-93 M4442.8,483.1v-94.4 M4514.8,483.1v-94.4 M4423,483.1v-94.4"/>
	<path fill="none" stroke="#EEEEEE" stroke-width="0.25" stroke-linecap="round" stroke-miterlimit="10" d="M4355.4,378.1h63
		 M4355.4,355.6h63"/>
	
		<line fill="none" stroke="#EEEEEE" stroke-width="0.25" stroke-linecap="round" stroke-miterlimit="10" x1="4334.4" y1="457.6" x2="4334.4" y2="334.6"/>
	
		<line fill="none" stroke="#EEEEEE" stroke-width="0.25" stroke-linecap="round" stroke-miterlimit="10" x1="4355.4" y1="378.1" x2="4355.4" y2="355.6"/>
	
		<line fill="none" stroke="#EEEEEE" stroke-width="0.25" stroke-linecap="round" stroke-miterlimit="10" x1="4331.4" y1="454.6" x2="4331.4" y2="331.6"/>
	<path fill="none" stroke="#EEEEEE" stroke-width="0.25" stroke-linecap="round" stroke-miterlimit="10" d="M4298.4,457.6h36
		 M4298.4,471.1h49.6"/>
	<path fill="none" stroke="#EEEEEE" stroke-width="0.25" stroke-linecap="round" stroke-miterlimit="10" d="M4298.4,454.6h33
		 M4298.4,472.6h49.6"/>
	<path fill="none" stroke="#EEEEEE" stroke-width="0.25" stroke-linecap="round" stroke-miterlimit="10" d="M4334.4,457.6h13.6
		 M4339,462.1h9 M4334.4,453.1h13.6 M4334.4,444.1h13.6 M4334.4,448.6h13.6 M4334.4,439.6h13.6 M4334.4,435.1h13.6 M4334.4,430.6
		h13.6 M4334.4,426.1h13.6 M4334.4,421.6h13.6 M4334.4,417.1h13.6 M4334.4,412.6h13.6 M4334.4,408.1h13.6 M4334.4,403.6h13.6
		 M4334.4,399.1h13.6 M4334.4,394.6h13.6 M4334.4,390.1h13.6 M4334.4,385.6h13.6 M4334.4,376.6h13.6 M4334.4,381.1h13.6 M4303,457.6
		v13.4 M4307.4,457.6v13.4 M4312,457.6v13.4"/>
	<polyline fill="none" stroke="#EEEEEE" stroke-width="0.25" stroke-linecap="round" stroke-miterlimit="10" points="4348,466.6 
		4343.4,466.6 4343.4,471.1 	"/>
	<path fill="none" stroke="#EEEEEE" stroke-width="0.25" stroke-linecap="round" stroke-miterlimit="10" d="M4345,345.1v-10.4
		 M4349.4,348.1v-13.4 M4354,348.1v-13.4 M4358.4,348.1v-13.4 M4363,348.1v-13.4 M4367.4,348.1v-13.4 M4372,348.1v-13.4 M4390,348.1
		v-13.4 M4385.4,348.1v-13.4 M4381,348.1v-13.4 M4376.4,348.1v-13.4 M4403.4,348.1v-13.4 M4399,348.1v-13.4 M4394.4,348.1v-13.4
		 M4316.4,457.6v13.4 M4321,457.6v13.4 M4325.4,457.6v13.4 M4330,457.6v13.4 M4334.4,457.6v13.4 M4339,462.1v9 M4334.4,457.6
		l13.6,13.4"/>
	<polyline fill="none" stroke="#EEEEEE" stroke-width="0.25" stroke-linecap="round" stroke-miterlimit="10" points="4340.4,334.6 
		4340.4,340.6 4334.4,340.6 	"/>
	<polyline fill="none" stroke="#EEEEEE" stroke-width="0.25" stroke-linecap="round" stroke-miterlimit="10" points="4336,334.6 
		4336,336.1 4334.4,336.1 	"/>
	<path fill="none" stroke="#EEEEEE" stroke-width="0.25" stroke-linecap="round" stroke-miterlimit="10" d="M4425.3,382.6v-31.6
		 M4440.6,382.6v-31.6 M4437.6,379.6v-25.6 M4428.3,379.6v-25.6 M4334.4,372.1h13.6 M4334.4,367.6h13.6 M4334.4,363.1h13.6
		 M4334.4,358.6h13.6 M4334.4,354.1h13.6 M4334.4,349.6h13.6 M4334.4,345.1h10.6 M4334.4,334.6l13.6,13.4"/>
	<path fill="none" stroke="#EEEEEE" stroke-width="0.25" stroke-linecap="round" stroke-miterlimit="10" d="M4447.4,378.1v-22.4
		 M4510.4,378.1v-22.4 M4539.3,378.1v-22.4"/>
	<path fill="none" stroke="#EEEEEE" stroke-width="0.25" stroke-linecap="round" stroke-miterlimit="10" d="M4534.7,382.6v-31.6
		 M4442.8,382.6v-31.6 M4514.8,382.6v-31.6"/>
	
		<line fill="none" stroke="#EEEEEE" stroke-width="0.25" stroke-linecap="round" stroke-miterlimit="10" x1="4418.4" y1="378.1" x2="4418.4" y2="355.6"/>
	
		<line fill="none" stroke="#EEEEEE" stroke-width="0.25" stroke-linecap="round" stroke-miterlimit="10" x1="4423" y1="382.6" x2="4423" y2="351.1"/>
	
		<line fill="none" stroke="#EEEEEE" stroke-width="0.25" stroke-linecap="round" stroke-miterlimit="10" x1="4447.4" y1="378.1" x2="4510.4" y2="378.1"/>
	<path fill="none" stroke="#EEEEEE" stroke-width="0.25" stroke-linecap="round" stroke-miterlimit="10" d="M4428.3,379.6h9.4
		 M4425.3,397.6h15.4 M4425.3,394.6h15.4 M4423,391.6h19.8 M4440.6,480.1h-15.4 M4440.6,477.1h-15.4"/>
	
		<rect x="4428.3" y="400.6" fill="none" stroke="#EEEEEE" stroke-width="0.25" stroke-linecap="round" stroke-miterlimit="10" width="9.4" height="73.4"/>
	
		<line fill="none" stroke="#EEEEEE" stroke-width="0.25" stroke-linecap="round" stroke-miterlimit="10" x1="4534.7" y1="390.1" x2="4534.7" y2="388.6"/>
	<path fill="none" stroke="#EEEEEE" stroke-width="0.25" stroke-linecap="round" stroke-miterlimit="10" d="M4447.4,355.6h63"/>
	<path fill="none" stroke="#EEEEEE" stroke-width="0.25" stroke-linecap="round" stroke-miterlimit="10" d="M4516,348.1v-13.4
		 M4511.4,348.1v-13.4 M4507,348.1v-13.4 M4502.4,348.1v-13.4 M4498,348.1v-13.4 M4493.4,348.1v-13.4 M4556.4,348.1v-13.4
		 M4552,348.1v-13.4 M4547.4,348.1v-13.4 M4543,348.1v-13.4 M4538.4,348.1v-13.4 M4534,348.1v-13.4 M4529.4,348.1v-13.4 M4525,348.1
		v-13.4 M4520.4,348.1v-13.4 M4579,348.1v-13.4 M4574.4,348.1v-13.4 M4570,348.1v-13.4 M4565.4,348.1v-13.4 M4561,348.1v-13.4
		 M4435,348.1v-13.4 M4430.4,348.1v-13.4 M4426,348.1v-13.4 M4421.4,348.1v-13.4 M4417,348.1v-13.4 M4412.4,348.1v-13.4 M4408,348.1
		v-13.4 M4489,348.1v-13.4 M4484.4,348.1v-13.4 M4480,348.1v-13.4 M4475.4,348.1v-13.4 M4471,348.1v-13.4 M4466.4,348.1v-13.4
		 M4462,348.1v-13.4 M4457.4,348.1v-13.4 M4453,348.1v-13.4 M4448.4,348.1v-13.4 M4444,348.1v-13.4 M4439.4,348.1v-13.4
		 M4428.3,354.1h9.4"/>
	
		<line fill="none" stroke="#EEEEEE" stroke-width="0.25" stroke-linecap="round" stroke-miterlimit="10" x1="4609.7" y1="483.1" x2="4609.7" y2="348.1"/>
	<path fill="none" stroke="#EEEEEE" stroke-width="0.25" stroke-linecap="round" stroke-miterlimit="10" d="M4659.3,507.4V301.2
		 M4606.7,483.1v-132"/>
	
		<line fill="none" stroke="#EEEEEE" stroke-width="0.25" stroke-linecap="round" stroke-miterlimit="10" x1="4623.3" y1="457.6" x2="4623.3" y2="334.6"/>
	
		<line fill="none" stroke="#EEEEEE" stroke-width="0.25" stroke-linecap="round" stroke-miterlimit="10" x1="4602.3" y1="378.1" x2="4602.3" y2="355.6"/>
	
		<line fill="none" stroke="#EEEEEE" stroke-width="0.25" stroke-linecap="round" stroke-miterlimit="10" x1="4626.3" y1="454.6" x2="4626.3" y2="331.6"/>
	<path fill="none" stroke="#EEEEEE" stroke-width="0.25" stroke-linecap="round" stroke-miterlimit="10" d="M4627.7,457.6v13.4
		 M4632.3,457.6v13.4 M4654.7,457.6v13.4 M4650.3,457.6v13.4 M4645.7,457.6v13.4 M4641.3,457.6v13.4 M4636.7,457.6v13.4"/>
	<polyline fill="none" stroke="#EEEEEE" stroke-width="0.25" stroke-linecap="round" stroke-miterlimit="10" points="4659.3,457.6 
		4623.3,457.6 4623.3,471.1 	"/>
	<path fill="none" stroke="#EEEEEE" stroke-width="0.25" stroke-linecap="round" stroke-miterlimit="10" d="M4623.3,390.1h-13.6
		 M4623.3,385.6h-13.6 M4623.3,381.1h-13.6 M4623.3,376.6h-13.6 M4623.3,435.1h-13.6 M4623.3,430.6h-13.6 M4623.3,426.1h-13.6
		 M4623.3,421.6h-13.6 M4623.3,417.1h-13.6 M4623.3,412.6h-13.6 M4623.3,408.1h-13.6 M4623.3,403.6h-13.6 M4623.3,399.1h-13.6
		 M4623.3,394.6h-13.6 M4614.3,466.6h-4.6 M4618.7,462.1h-9 M4623.3,457.6h-13.6 M4623.3,453.1h-13.6 M4623.3,448.6h-13.6
		 M4623.3,444.1h-13.6 M4623.3,439.6h-13.6 M4623.3,457.6l-13.6,13.4 M4614.3,466.6v4.4 M4618.7,462.1v9 M4659.3,471.1h-49.6"/>
	<path fill="none" stroke="#EEEEEE" stroke-width="0.25" stroke-linecap="round" stroke-miterlimit="10" d="M4659.3,454.6h-33
		 M4659.3,472.6h-49.6"/>
	<path fill="none" stroke="#EEEEEE" stroke-width="0.25" stroke-linecap="round" stroke-miterlimit="10" d="M4601.4,348.1v-13.4
		 M4597,348.1v-13.4 M4592.4,348.1v-13.4 M4588,348.1v-13.4 M4583.4,348.1v-13.4 M4619.4,338.3v-3.7 M4623.3,340.6h-6 M4609.7,348.1
		l13.6-13.4 M4623.3,336.1h-1.6 M4623.3,345.1h-10.6 M4623.3,349.6h-13.6 M4623.3,354.1h-13.6 M4623.3,358.6h-13.6 M4610.4,347.3
		v-12.7 M4606,348.1v-13.4 M4615,342.9v-8.3 M4623.3,372.1h-13.6 M4623.3,367.6h-13.6 M4623.3,363.1h-13.6"/>
	<polyline fill="none" stroke="#EEEEEE" stroke-width="0.25" stroke-linecap="round" stroke-miterlimit="10" points="4352.4,481.6 
		4352.4,390.1 4421.4,390.1 4421.4,481.6 	"/>
	<path fill="none" stroke="#EEEEEE" stroke-width="0.25" stroke-linecap="round" stroke-miterlimit="10" d="M4536.3,481.6v-91.6
		 M4513.4,481.6v-91.6 M4444.3,481.6v-91.6 M4605.3,481.6h-69"/>
	<polyline fill="none" stroke="#EEEEEE" stroke-width="0.25" stroke-linecap="round" stroke-miterlimit="10" points="4605.3,481.6 
		4605.3,390.1 4536.3,390.1 	"/>
	<path fill="none" stroke="#EEEEEE" stroke-width="0.25" stroke-linecap="round" stroke-miterlimit="10" d="M4421.4,481.6h-69
		 M4444.3,390.1h69 M4513.4,481.6h-69"/>
	
		<rect x="4355.4" y="393.1" fill="none" stroke="#EEEEEE" stroke-width="0.25" stroke-linecap="round" stroke-miterlimit="10" width="63" height="85.6"/>
	<polyline fill="none" stroke="#EEEEEE" stroke-width="0.25" stroke-linecap="round" stroke-miterlimit="10" points="4510.4,478.6 
		4447.4,478.6 4447.4,393.1 	"/>
	<polyline fill="none" stroke="#EEEEEE" stroke-width="0.25" stroke-linecap="round" stroke-miterlimit="10" points="4510.4,478.6 
		4510.4,393.1 4447.4,393.1 	"/>
	<polyline fill="none" stroke="#EEEEEE" stroke-width="0.25" stroke-linecap="round" stroke-miterlimit="10" points="4602.3,393.1 
		4539.3,393.1 4539.3,478.6 	"/>
	<polyline fill="none" stroke="#EEEEEE" stroke-width="0.25" stroke-linecap="round" stroke-miterlimit="10" points="4602.3,393.1 
		4602.3,478.6 4539.3,478.6 	"/>
	<path fill="none" stroke="#EEEEEE" stroke-width="0.25" stroke-linecap="round" stroke-miterlimit="10" d="M4360,397.6h54
		 M4360,474.1v-35.2"/>
	<polyline fill="none" stroke="#EEEEEE" stroke-width="0.25" stroke-linecap="round" stroke-miterlimit="10" points="4414,438.9 
		4414,474.1 4360,474.1 	"/>
	<path fill="none" stroke="#EEEEEE" stroke-width="0.25" stroke-linecap="round" stroke-miterlimit="10" d="M4451.8,397.6h54
		 M4451.8,474.1v-35.2"/>
	<polyline fill="none" stroke="#EEEEEE" stroke-width="0.25" stroke-linecap="round" stroke-miterlimit="10" points="4505.8,438.9 
		4505.8,474.1 4451.8,474.1 	"/>
	<polyline fill="none" stroke="#EEEEEE" stroke-width="0.25" stroke-linecap="round" stroke-miterlimit="10" points="4543.7,438.9 
		4543.7,474.1 4597.7,474.1 4597.7,438.9 	"/>
	<path fill="none" stroke="#EEEEEE" stroke-width="0.25" stroke-linecap="round" stroke-miterlimit="10" d="M4597.7,434.3v-36.7
		 M4543.7,434.3v-36.7 M4505.8,434.3v-36.7 M4451.8,434.3v-36.7 M4414,434.3v-36.7 M4360,434.3v-36.7 M4539.3,438.9h63
		 M4447.4,438.9h63 M4355.4,438.9h63 M4543.7,434.3h54 M4451.8,434.3h54 M4360,434.3h54 M4543.7,397.6h54"/>
	<path fill="none" stroke="#EEEEEE" stroke-width="0.25" stroke-linecap="round" stroke-miterlimit="10" d="M4532.4,397.6h-15.4
		 M4532.4,394.6h-15.4 M4534.7,391.6h-19.9 M4517.1,480.1h15.4 M4517.1,477.1h15.4 M4532.4,391.6v91.4 M4517.1,483.1v-91.4
		 M4529.4,354.1h-9.4 M4529.4,379.6h-9.4 M4532.4,382.6v-31.6 M4517.1,382.6v-31.6 M4520.1,379.6v-25.6 M4529.4,379.6v-25.6
		 M4634.4,472.6v10.4 M4323.3,472.6v10.4"/>
	
		<rect x="4520.1" y="400.6" fill="none" stroke="#EEEEEE" stroke-width="0.25" stroke-linecap="round" stroke-miterlimit="10" width="9.4" height="73.4"/>
	<path fill="none" stroke="#EEEEEE" stroke-width="0.25" stroke-linecap="round" stroke-miterlimit="10" d="M4298.4,299.6h360.8"/>
	<path fill="none" stroke="#EEEEEE" stroke-width="0.25" stroke-linecap="round" stroke-miterlimit="10" d="M4300.4,507.7h340.8
		 M4659.3,499.6h-360.8"/>
	<path fill="none" stroke="#EEEEEE" stroke-width="0.25" stroke-linecap="round" stroke-miterlimit="10" d="M4657,483.1v4.8
		 M4316.4,502.6h-18"/>
	<polyline fill="none" stroke="#EEEEEE" stroke-width="0.25" stroke-linecap="round" stroke-miterlimit="10" points="4643.4,487.9 
		4643.4,483.1 4657,483.1 	"/>
	
		<line fill="none" stroke="#EEEEEE" stroke-width="0.25" stroke-linecap="round" stroke-miterlimit="10" x1="4652.1" y1="494.6" x2="4648.5" y2="494.6"/>
	<polyline fill="none" stroke="#EEEEEE" stroke-width="0.25" stroke-linecap="round" stroke-miterlimit="10" points="4657,487.9 
		4655.2,489.2 4653.8,490.7 4652.7,492.5 4652.1,494.6 	"/>
	<polyline fill="none" stroke="#EEEEEE" stroke-width="0.25" stroke-linecap="round" stroke-miterlimit="10" points="4648.5,494.6 
		4647.8,492.5 4646.7,490.7 4645.2,489.2 4643.4,487.9 	"/>
	<path fill="none" stroke="#EEEEEE" stroke-width="0.25" stroke-linecap="round" stroke-miterlimit="10" d="M4311.6,307.1v-4.1
		 M4311.6,315.1v-4 M4311.6,323.1v-4 M4311.6,331.1v-4.1 M4311.6,339.1v-4 M4311.6,347.1v-4 M4311.6,355.1v-4.1 M4311.6,363.1v-4
		 M4311.6,371.1v-4 M4311.6,379.1v-4.1 M4311.6,387.1v-4 M4311.6,395.1v-4 M4311.6,403.1v-4.1 M4311.6,411.2v-4.1 M4311.6,419.1v-4
		 M4311.6,427.1v-4 M4311.6,435.2v-4.1 M4311.6,443.1v-4 M4311.6,451.1v-4 M4305.6,303.1v-3.5 M4305.6,311.1v-4 M4305.6,319.1v-4.1
		 M4305.6,327.1v-4 M4305.6,335.1v-4 M4305.6,343.1v-4.1 M4305.6,351.1v-4 M4305.6,359.1v-4 M4305.6,367.1v-4.1 M4305.6,375.1v-4
		 M4305.6,383.1v-4 M4305.6,391.1v-4.1 M4305.6,399.1v-4 M4305.6,407.1v-4 M4305.6,415.1v-4 M4305.6,423.2v-4.1 M4305.6,431.1v-4
		 M4305.6,439.1v-4 M4305.6,447.2v-4.1 M4305.6,454.6v-3.5 M4299.6,307.1v-4.1 M4299.6,315.1v-4 M4299.6,323.1v-4 M4299.6,331.1
		v-4.1 M4299.6,339.1v-4 M4299.6,347.1v-4 M4299.6,355.1v-4.1 M4299.6,363.1v-4 M4299.6,371.1v-4 M4299.6,379.1v-4.1 M4299.6,387.1
		v-4 M4299.6,395.1v-4 M4299.6,403.1v-4.1 M4299.6,411.2v-4.1 M4299.6,419.1v-4 M4299.6,427.1v-4 M4299.6,435.2v-4.1 M4299.6,443.1
		v-4 M4299.6,451.1v-4 M4626.3,451.1h33 M4298.4,451.1h33 M4626.3,447.2h33 M4298.4,447.2h33 M4626.3,443.1h33 M4298.4,443.1h33
		 M4626.3,439.1h33 M4298.4,439.1h33 M4626.3,435.2h33 M4298.4,435.2h33 M4626.3,431.1h33 M4298.4,431.1h33 M4626.3,427.1h33
		 M4298.4,427.1h33 M4626.3,423.2h33 M4298.4,423.2h33 M4626.3,419.1h33 M4298.4,419.1h33 M4626.3,415.1h33 M4298.4,415.1h33
		 M4626.3,411.2h33 M4298.4,411.2h33 M4626.3,407.1h33 M4298.4,407.1h33 M4626.3,403.1h33 M4298.4,403.1h33 M4626.3,399.1h33
		 M4298.4,399.1h33 M4626.3,395.1h33 M4298.4,395.1h33 M4626.3,391.1h33 M4298.4,391.1h33 M4626.3,387.1h33 M4298.4,387.1h33
		 M4626.3,383.1h33 M4298.4,383.1h33 M4626.3,379.1h33 M4298.4,379.1h33 M4626.3,375.1h33 M4298.4,375.1h33 M4626.3,371.1h33
		 M4298.4,371.1h33 M4626.3,367.1h33 M4298.4,367.1h33 M4626.3,363.1h33 M4298.4,363.1h33 M4626.3,359.1h33 M4298.4,359.1h33
		 M4626.3,355.1h33 M4298.4,355.1h33 M4626.3,351.1h33 M4298.4,351.1h33 M4626.3,347.1h33 M4298.4,347.1h33 M4626.3,343.1h33
		 M4298.4,343.1h33 M4626.3,339.1h33 M4298.4,339.1h33 M4626.3,335.1h33 M4298.4,335.1h33 M4298.4,331.1h360.8 M4298.4,327.1h360.8
		 M4298.4,323.1h360.8 M4298.4,319.1h360.8 M4298.4,315.1h360.8 M4298.4,311.1h360.8 M4298.4,307.1h360.8 M4298.4,303.1h360.8"/>
	<path fill="none" stroke="#EEEEEE" stroke-width="0.25" stroke-linecap="round" stroke-miterlimit="10" d="M4425.6,327.1v-4
		 M4425.6,331.6v-0.5 M4419.6,307.1v-4.1 M4419.6,315.1v-4 M4419.6,323.1v-4 M4419.6,331.1v-4.1 M4413.6,303.1v-3.5 M4413.6,311.1
		v-4 M4413.6,319.1v-4.1 M4413.6,327.1v-4 M4413.6,331.6v-0.5 M4407.6,307.1v-4.1 M4407.6,315.1v-4 M4407.6,323.1v-4 M4407.6,331.1
		v-4.1 M4401.6,303.1v-3.5 M4401.6,311.1v-4 M4401.6,319.1v-4.1 M4401.6,327.1v-4 M4401.6,331.6v-0.5 M4395.6,307.1v-4.1
		 M4395.6,315.1v-4 M4395.6,323.1v-4 M4395.6,331.1v-4.1 M4389.6,303.1v-3.5 M4389.6,311.1v-4 M4389.6,319.1v-4.1 M4389.6,327.1v-4
		 M4389.6,331.6v-0.5 M4383.6,307.1v-4.1 M4383.6,315.1v-4 M4383.6,323.1v-4 M4383.6,331.1v-4.1 M4377.6,303.1v-3.5 M4377.6,311.1
		v-4 M4377.6,319.1v-4.1 M4377.6,327.1v-4 M4377.6,331.6v-0.5 M4371.6,307.1v-4.1 M4371.6,315.1v-4 M4371.6,323.1v-4 M4371.6,331.1
		v-4.1 M4365.6,303.1v-3.5 M4365.6,311.1v-4 M4365.6,319.1v-4.1 M4365.6,327.1v-4 M4365.6,331.6v-0.5 M4359.6,307.1v-4.1
		 M4359.6,315.1v-4 M4359.6,323.1v-4 M4359.6,331.1v-4.1 M4353.6,303.1v-3.5 M4353.6,311.1v-4 M4353.6,319.1v-4.1 M4353.6,327.1v-4
		 M4353.6,331.6v-0.5 M4347.6,307.1v-4.1 M4347.6,315.1v-4 M4347.6,323.1v-4 M4347.6,331.1v-4.1 M4341.6,303.1v-3.5 M4341.6,311.1
		v-4 M4341.6,319.1v-4.1 M4341.6,327.1v-4 M4341.6,331.6v-0.5 M4335.6,307.1v-4.1 M4335.6,315.1v-4 M4335.6,323.1v-4 M4335.6,331.1
		v-4.1 M4329.6,303.1v-3.5 M4329.6,311.1v-4 M4329.6,319.1v-4.1 M4329.6,327.1v-4 M4329.6,335.1v-4 M4329.6,343.1v-4.1
		 M4329.6,351.1v-4 M4329.6,359.1v-4 M4329.6,367.1v-4.1 M4329.6,375.1v-4 M4329.6,383.1v-4 M4329.6,391.1v-4.1 M4329.6,399.1v-4
		 M4329.6,407.1v-4 M4329.6,415.1v-4 M4329.6,423.2v-4.1 M4329.6,431.1v-4 M4329.6,439.1v-4 M4329.6,447.2v-4.1 M4329.6,454.6v-3.5
		 M4323.6,307.1v-4.1 M4323.6,315.1v-4 M4323.6,323.1v-4 M4323.6,331.1v-4.1 M4323.6,339.1v-4 M4323.6,347.1v-4 M4323.6,355.1v-4.1
		 M4323.6,363.1v-4 M4323.6,371.1v-4 M4323.6,379.1v-4.1 M4323.6,387.1v-4 M4323.6,395.1v-4 M4323.6,403.1v-4.1 M4323.6,411.2v-4.1
		 M4323.6,419.1v-4 M4323.6,427.1v-4 M4323.6,435.2v-4.1 M4323.6,443.1v-4 M4323.6,451.1v-4 M4317.6,303.1v-3.5 M4317.6,311.1v-4
		 M4317.6,319.1v-4.1 M4317.6,327.1v-4 M4317.6,335.1v-4 M4317.6,343.1v-4.1 M4317.6,351.1v-4 M4317.6,359.1v-4 M4317.6,367.1v-4.1
		 M4317.6,375.1v-4 M4317.6,383.1v-4 M4317.6,391.1v-4.1 M4317.6,399.1v-4 M4317.6,407.1v-4 M4317.6,415.1v-4 M4317.6,423.2v-4.1
		 M4317.6,431.1v-4 M4317.6,439.1v-4 M4317.6,447.2v-4.1 M4317.6,454.6v-3.5"/>
	<path fill="none" stroke="#EEEEEE" stroke-width="0.25" stroke-linecap="round" stroke-miterlimit="10" d="M4593.6,311.1v-4
		 M4593.6,319.1v-4.1 M4593.6,327.1v-4 M4593.6,331.6v-0.5 M4587.6,307.1v-4.1 M4587.6,315.1v-4 M4587.6,323.1v-4 M4587.6,331.1
		v-4.1 M4581.6,303.1v-3.5 M4581.6,311.1v-4 M4581.6,319.1v-4.1 M4581.6,327.1v-4 M4581.6,331.6v-0.5 M4575.6,307.1v-4.1
		 M4575.6,315.1v-4 M4575.6,323.1v-4 M4575.6,331.1v-4.1 M4569.6,303.1v-3.5 M4569.6,311.1v-4 M4569.6,319.1v-4.1 M4569.6,327.1v-4
		 M4569.6,331.6v-0.5 M4563.6,307.1v-4.1 M4563.6,315.1v-4 M4563.6,323.1v-4 M4563.6,331.1v-4.1 M4557.6,303.1v-3.5 M4557.6,311.1
		v-4 M4557.6,319.1v-4.1 M4557.6,327.1v-4 M4557.6,331.6v-0.5 M4551.6,307.1v-4.1 M4551.6,315.1v-4 M4551.6,323.1v-4 M4551.6,331.1
		v-4.1 M4545.6,303.1v-3.5 M4545.6,311.1v-4 M4545.6,319.1v-4.1 M4545.6,327.1v-4 M4545.6,331.6v-0.5 M4539.6,307.1v-4.1
		 M4539.6,315.1v-4 M4539.6,323.1v-4 M4539.6,331.1v-4.1 M4533.6,303.1v-3.5 M4533.6,311.1v-4 M4533.6,319.1v-4.1 M4533.6,327.1v-4
		 M4533.6,331.6v-0.5 M4527.6,307.1v-4.1 M4527.6,315.1v-4 M4527.6,323.1v-4 M4527.6,331.1v-4.1 M4521.6,303.1v-3.5 M4521.6,311.1
		v-4 M4521.6,319.1v-4.1 M4521.6,327.1v-4 M4521.6,331.6v-0.5 M4515.6,307.1v-4.1 M4515.6,315.1v-4 M4515.6,323.1v-4 M4515.6,331.1
		v-4.1 M4509.6,303.1v-3.5 M4509.6,311.1v-4 M4509.6,319.1v-4.1 M4509.6,327.1v-4 M4509.6,331.6v-0.5 M4503.6,307.1v-4.1
		 M4503.6,315.1v-4 M4503.6,323.1v-4 M4503.6,331.1v-4.1 M4497.6,303.1v-3.5 M4497.6,311.1v-4 M4497.6,319.1v-4.1 M4497.6,327.1v-4
		 M4497.6,331.6v-0.5 M4491.6,307.1v-4.1 M4491.6,315.1v-4 M4491.6,323.1v-4 M4491.6,331.1v-4.1 M4485.6,303.1v-3.5 M4485.6,311.1
		v-4 M4485.6,319.1v-4.1 M4485.6,327.1v-4 M4485.6,331.6v-0.5 M4479.6,307.1v-4.1 M4479.6,315.1v-4 M4479.6,323.1v-4 M4479.6,331.1
		v-4.1 M4473.6,303.1v-3.5 M4473.6,311.1v-4 M4473.6,319.1v-4.1 M4473.6,327.1v-4 M4473.6,331.6v-0.5 M4467.6,307.1v-4.1
		 M4467.6,315.1v-4 M4467.6,323.1v-4 M4467.6,331.1v-4.1 M4461.6,303.1v-3.5 M4461.6,311.1v-4 M4461.6,319.1v-4.1 M4461.6,327.1v-4
		 M4461.6,331.6v-0.5 M4455.6,307.1v-4.1 M4455.6,315.1v-4 M4455.6,323.1v-4 M4455.6,331.1v-4.1 M4449.6,303.1v-3.5 M4449.6,311.1
		v-4 M4449.6,319.1v-4.1 M4449.6,327.1v-4 M4449.6,331.6v-0.5 M4443.6,307.1v-4.1 M4443.6,315.1v-4 M4443.6,323.1v-4 M4443.6,331.1
		v-4.1 M4437.6,303.1v-3.5 M4437.6,311.1v-4 M4437.6,319.1v-4.1 M4437.6,327.1v-4 M4437.6,331.6v-0.5 M4431.6,307.1v-4.1
		 M4431.6,315.1v-4 M4431.6,323.1v-4 M4431.6,331.1v-4.1 M4425.6,303.1v-3.5 M4425.6,311.1v-4 M4425.6,319.1v-4.1"/>
	<path fill="none" stroke="#EEEEEE" stroke-width="0.25" stroke-linecap="round" stroke-miterlimit="10" d="M4653.6,303.1v-3.5
		 M4653.6,311.1v-4 M4653.6,319.1v-4.1 M4653.6,327.1v-4 M4653.6,335.1v-4 M4653.6,343.1v-4.1 M4653.6,351.1v-4 M4653.6,359.1v-4
		 M4653.6,367.1v-4.1 M4653.6,375.1v-4 M4653.6,383.1v-4 M4653.6,391.1v-4.1 M4653.6,399.1v-4 M4653.6,407.1v-4 M4653.6,415.1v-4
		 M4653.6,423.2v-4.1 M4653.6,431.1v-4 M4653.6,439.1v-4 M4653.6,447.2v-4.1 M4653.6,454.6v-3.5 M4647.6,307.1v-4.1 M4647.6,315.1
		v-4 M4647.6,323.1v-4 M4647.6,331.1v-4.1 M4647.6,339.1v-4 M4647.6,347.1v-4 M4647.6,355.1v-4.1 M4647.6,363.1v-4 M4647.6,371.1v-4
		 M4647.6,379.1v-4.1 M4647.6,387.1v-4 M4647.6,395.1v-4 M4647.6,403.1v-4.1 M4647.6,411.2v-4.1 M4647.6,419.1v-4 M4647.6,427.1v-4
		 M4647.6,435.2v-4.1 M4647.6,443.1v-4 M4647.6,451.1v-4 M4641.6,303.1v-3.5 M4641.6,311.1v-4 M4641.6,319.1v-4.1 M4641.6,327.1v-4
		 M4641.6,335.1v-4 M4641.6,343.1v-4.1 M4641.6,351.1v-4 M4641.6,359.1v-4 M4641.6,367.1v-4.1 M4641.6,375.1v-4 M4641.6,383.1v-4
		 M4641.6,391.1v-4.1 M4641.6,399.1v-4 M4641.6,407.1v-4 M4641.6,415.1v-4 M4641.6,423.2v-4.1 M4641.6,431.1v-4 M4641.6,439.1v-4
		 M4641.6,447.2v-4.1 M4641.6,454.6v-3.5 M4635.6,307.1v-4.1 M4635.6,315.1v-4 M4635.6,323.1v-4 M4635.6,331.1v-4.1 M4635.6,339.1
		v-4 M4635.6,347.1v-4 M4635.6,355.1v-4.1 M4635.6,363.1v-4 M4635.6,371.1v-4 M4635.6,379.1v-4.1 M4635.6,387.1v-4 M4635.6,395.1v-4
		 M4635.6,403.1v-4.1 M4635.6,411.2v-4.1 M4635.6,419.1v-4 M4635.6,427.1v-4 M4635.6,435.2v-4.1 M4635.6,443.1v-4 M4635.6,451.1v-4
		 M4629.6,303.1v-3.5 M4629.6,311.1v-4 M4629.6,319.1v-4.1 M4629.6,327.1v-4 M4629.6,335.1v-4 M4629.6,343.1v-4.1 M4629.6,351.1v-4
		 M4629.6,359.1v-4 M4629.6,367.1v-4.1 M4629.6,375.1v-4 M4629.6,383.1v-4 M4629.6,391.1v-4.1 M4629.6,399.1v-4 M4629.6,407.1v-4
		 M4629.6,415.1v-4 M4629.6,423.2v-4.1 M4629.6,431.1v-4 M4629.6,439.1v-4 M4629.6,447.2v-4.1 M4629.6,454.6v-3.5 M4623.6,307.1
		v-4.1 M4623.6,315.1v-4 M4623.6,323.1v-4 M4623.6,331.1v-4.1 M4617.6,303.1v-3.5 M4617.6,311.1v-4 M4617.6,319.1v-4.1
		 M4617.6,327.1v-4 M4617.6,331.6v-0.5 M4611.6,307.1v-4.1 M4611.6,315.1v-4 M4611.6,323.1v-4 M4611.6,331.1v-4.1 M4605.6,303.1
		v-3.5 M4605.6,311.1v-4 M4605.6,319.1v-4.1 M4605.6,327.1v-4 M4605.6,331.6v-0.5 M4599.6,307.1v-4.1 M4599.6,315.1v-4
		 M4599.6,323.1v-4 M4599.6,331.1v-4.1 M4593.6,303.1v-3.5"/>
	<polyline fill="none" stroke="#EEEEEE" stroke-width="0.25" stroke-linecap="round" stroke-miterlimit="10" points="4318.7,497.3 
		4639,497.3 4639,485.3 	"/>
	
		<line fill="none" stroke="#EEEEEE" stroke-width="0.25" stroke-linecap="round" stroke-miterlimit="10" x1="4318.7" y1="485.3" x2="4318.7" y2="497.3"/>
	
		<line fill="none" stroke="#EEEEEE" stroke-width="0.25" stroke-linecap="round" stroke-miterlimit="10" x1="4300.7" y1="483.1" x2="4300.7" y2="487.9"/>
	<polyline fill="none" stroke="#EEEEEE" stroke-width="0.25" stroke-linecap="round" stroke-miterlimit="10" points="4314.3,487.9 
		4314.3,483.1 4300.7,483.1 	"/>
	<polyline fill="none" stroke="#EEEEEE" stroke-width="0.25" stroke-linecap="round" stroke-miterlimit="10" points="4309.2,494.6 
		4305.6,494.6 4304.9,492.5 4303.8,490.7 4302.4,489.2 4300.7,487.9 	"/>
	<polyline fill="none" stroke="#EEEEEE" stroke-width="0.25" stroke-linecap="round" stroke-miterlimit="10" points="4314.3,487.9 
		4312.5,489.2 4311,490.7 4310,492.5 4309.2,494.6 	"/></g></svg>