<svg><g><path fill="none" stroke="#EEEEEE" stroke-width="0.25" stroke-linecap="round" stroke-miterlimit="10" d="M4316.9,658.6h324
	 M4316.9,649.6h324 M4316.9,640.6h324 M4316.9,631.6h324 M4316.9,586.6h324 M4316.9,595.6h324 M4316.9,604.6h324 M4316.9,613.6h324
	 M4316.9,622.6h324 M4631.9,577.6v90 M4622.9,577.6v90 M4613.9,577.6v90 M4604.9,577.6v90 M4595.9,577.6v90 M4586.9,577.6v90
	 M4577.9,577.6v90 M4568.9,577.6v90 M4559.9,577.6v90 M4550.9,577.6v90 M4541.9,577.6v90 M4316.9,583.6v90 M4334.9,577.6v90
	 M4325.9,577.6v90 M4334.9,577.6v90 M4343.9,577.6v90 M4352.9,577.6v90 M4361.9,577.6v90 M4370.9,577.6v90 M4379.9,577.6v90
	 M4388.9,577.6v90 M4397.9,577.6v90 M4406.9,577.6v90 M4415.9,577.6v90"/>

	<line fill="none" stroke="#EEEEEE" stroke-width="0.25" stroke-linecap="round" stroke-miterlimit="10" x1="4298.6" y1="698.9" x2="4659.4" y2="698.9"/>
<path fill="none" stroke="#EEEEEE" stroke-width="0.25" stroke-linecap="round" stroke-miterlimit="10" d="M4316.6,676.6
	 M4641.4,676.6"/>
<path fill="none" stroke="#EEEEEE" stroke-width="0.25" stroke-linecap="round" stroke-miterlimit="10" d="M4298.6,510.7
	 M4316.6,660.1 M4641.4,577.6h-324.8 M4641.4,568.6h-324.8 M4659.4,513.7h-18 M4659.4,510.7h-18"/>
<polyline fill="none" stroke="#EEEEEE" stroke-width="0.25" stroke-linecap="round" stroke-miterlimit="10" points="4307.6,527.9 
	4309.5,527.7 4311.4,526.9 4312.8,525.8 4314,524.2 4314.9,522.4 4315.1,520.4 	"/>

	<line fill="none" stroke="#EEEEEE" stroke-width="0.25" stroke-linecap="round" stroke-miterlimit="10" x1="4298.6" y1="580.6" x2="4316.6" y2="580.6"/>
<polyline fill="none" stroke="#EEEEEE" stroke-width="0.25" stroke-linecap="round" stroke-miterlimit="10" points="4303.1,576.1 
	4303.4,577.5 4304,578.7 4304.9,579.8 4306.2,580.4 4307.6,580.6 4309,580.4 4310.2,579.8 4311.3,578.7 4311.9,577.5 4312.1,576.1 
	4312.1,573.1 	"/>
<path fill="none" stroke="#EEEEEE" stroke-width="0.25" stroke-linecap="round" stroke-miterlimit="10" d="M4303.1,576.1v-3
	 M4303.1,574.6h9"/>
<polyline fill="none" stroke="#EEEEEE" stroke-width="0.25" stroke-linecap="round" stroke-miterlimit="10" points="4301.6,570.1 
	4301.6,573.1 4313.6,573.1 4313.6,570.1 	"/>
<polyline fill="none" stroke="#EEEEEE" stroke-width="0.25" stroke-linecap="round" stroke-miterlimit="10" points="4315.1,569.3 
	4315.1,570.1 4313.6,570.1 	"/>
<polyline fill="none" stroke="#EEEEEE" stroke-width="0.25" stroke-linecap="round" stroke-miterlimit="10" points="4300.1,569.3 
	4300.1,570.1 4301.6,570.1 	"/>
<path fill="none" stroke="#EEEEEE" stroke-width="0.25" stroke-linecap="round" stroke-miterlimit="10" d="M4301.6,538.4h12
	 M4300.1,536.9h15 M4301.6,536.9v1.4 M4313.6,538.4v-1.4 M4312.1,538.4v31 M4309.1,538.4v31 M4306.1,538.4v31 M4303.1,538.4v31
	 M4301.6,570.1h12 M4300.1,569.3h15"/>
<polyline fill="none" stroke="#EEEEEE" stroke-width="0.25" stroke-linecap="round" stroke-miterlimit="10" points="4301.6,535.4 
	4313.6,535.4 4313.6,529.4 	"/>
<path fill="none" stroke="#EEEEEE" stroke-width="0.25" stroke-linecap="round" stroke-miterlimit="10" d="M4300.1,527.9v9
	 M4315.1,536.9v-9"/>
<polyline fill="none" stroke="#EEEEEE" stroke-width="0.25" stroke-linecap="round" stroke-miterlimit="10" points="4301.6,535.4 
	4301.6,529.4 4313.6,529.4 	"/>

	<line fill="none" stroke="#EEEEEE" stroke-width="0.25" stroke-linecap="round" stroke-miterlimit="10" x1="4315.1" y1="527.9" x2="4300.1" y2="527.9"/>

	<line fill="none" stroke="#EEEEEE" stroke-width="0.25" stroke-linecap="round" stroke-miterlimit="10" x1="4315.1" y1="520.4" x2="4315.1" y2="513.7"/>
<polyline fill="none" stroke="#EEEEEE" stroke-width="0.25" stroke-linecap="round" stroke-miterlimit="10" points="4300.1,519.7 
	4300.1,520.4 4300.4,522.4 4301.1,524.2 4302.3,525.8 4303.8,526.9 4305.6,527.7 4307.6,527.9 	"/>
<polyline fill="none" stroke="#EEEEEE" stroke-width="0.25" stroke-linecap="round" stroke-miterlimit="10" points="4300.1,513.7 
	4300.1,519.7 4315.1,519.7 	"/>
<path fill="none" stroke="#EEEEEE" stroke-width="0.25" stroke-linecap="round" stroke-miterlimit="10" d="M4307.6,520.4v7.6
	 M4304.6,520.4v7 M4310.6,520.4v7 M4300.1,520.4h15"/>
<path fill="none" stroke="#EEEEEE" stroke-width="0.25" stroke-linecap="round" stroke-miterlimit="10" d="M4641.4,660.1"/>
<path fill="none" stroke="#EEEEEE" stroke-width="0.25" stroke-linecap="round" stroke-miterlimit="10" d="M4659.4,510.7"/>
<polyline fill="none" stroke="#EEEEEE" stroke-width="0.25" stroke-linecap="round" stroke-miterlimit="10" points="4645.8,576.1 
	4646.1,577.5 4646.7,578.7 4647.8,579.8 4649,580.4 4650.4,580.6 4651.7,580.4 4653,579.8 4654,578.7 4654.6,577.5 4654.8,576.1 
	4654.8,573.1 	"/>
<path fill="none" stroke="#EEEEEE" stroke-width="0.25" stroke-linecap="round" stroke-miterlimit="10" d="M4645.8,576.1v-3
	 M4645.8,574.6h9"/>
<polyline fill="none" stroke="#EEEEEE" stroke-width="0.25" stroke-linecap="round" stroke-miterlimit="10" points="4644.4,570.1 
	4644.4,573.1 4656.4,573.1 4656.4,570.1 	"/>
<polyline fill="none" stroke="#EEEEEE" stroke-width="0.25" stroke-linecap="round" stroke-miterlimit="10" points="4657.8,569.3 
	4657.8,570.1 4656.4,570.1 	"/>
<polyline fill="none" stroke="#EEEEEE" stroke-width="0.25" stroke-linecap="round" stroke-miterlimit="10" points="4642.8,569.3 
	4642.8,570.1 4644.4,570.1 	"/>
<path fill="none" stroke="#EEEEEE" stroke-width="0.25" stroke-linecap="round" stroke-miterlimit="10" d="M4656.4,538.4v-1.4
	 M4654.8,538.4v31 M4651.8,538.4v31 M4648.8,538.4v31 M4645.8,538.4v31 M4644.4,570.1h12 M4642.8,569.3h15"/>
<polyline fill="none" stroke="#EEEEEE" stroke-width="0.25" stroke-linecap="round" stroke-miterlimit="10" points="4644.4,536.9 
	4644.4,538.4 4656.4,538.4 	"/>
<path fill="none" stroke="#EEEEEE" stroke-width="0.25" stroke-linecap="round" stroke-miterlimit="10" d="M4657.8,536.9v-9
	 M4656.4,535.4v-6 M4642.8,536.9h15 M4644.4,535.4h12"/>
<polyline fill="none" stroke="#EEEEEE" stroke-width="0.25" stroke-linecap="round" stroke-miterlimit="10" points="4644.4,535.4 
	4644.4,529.4 4656.4,529.4 	"/>
<polyline fill="none" stroke="#EEEEEE" stroke-width="0.25" stroke-linecap="round" stroke-miterlimit="10" points="4642.8,536.9 
	4642.8,527.9 4657.8,527.9 	"/>
<polyline fill="none" stroke="#EEEEEE" stroke-width="0.25" stroke-linecap="round" stroke-miterlimit="10" points="4650.4,527.9 
	4652.3,527.7 4654.1,526.9 4655.7,525.8 4656.9,524.2 4657.6,522.4 4657.8,520.4 	"/>
<path fill="none" stroke="#EEEEEE" stroke-width="0.25" stroke-linecap="round" stroke-miterlimit="10" d="M4647.4,520.4v7
	 M4650.4,520.4v7.6 M4653.4,520.4v7"/>
<polyline fill="none" stroke="#EEEEEE" stroke-width="0.25" stroke-linecap="round" stroke-miterlimit="10" points="4642.8,520.4 
	4643.1,522.4 4643.8,524.2 4645,525.8 4646.6,526.9 4648.4,527.7 4650.4,527.9 	"/>
<polyline fill="none" stroke="#EEEEEE" stroke-width="0.25" stroke-linecap="round" stroke-miterlimit="10" points="4642.8,520.4 
	4642.8,519.7 4657.8,519.7 	"/>
<path fill="none" stroke="#EEEEEE" stroke-width="0.25" stroke-linecap="round" stroke-miterlimit="10" d="M4642.8,513.7v6
	 M4642.8,520.4h15"/>

	<line fill="none" stroke="#EEEEEE" stroke-width="0.25" stroke-linecap="round" stroke-miterlimit="10" x1="4641.4" y1="580.6" x2="4659.4" y2="580.6"/>

	<line fill="none" stroke="#EEEEEE" stroke-width="0.25" stroke-linecap="round" stroke-miterlimit="10" x1="4328.6" y1="556.6" x2="4629.4" y2="556.6"/>
<path fill="none" stroke="#EEEEEE" stroke-width="0.25" stroke-linecap="round" stroke-miterlimit="10" d="M4298.6,576.1h18
	 M4659.4,576.1h-18"/>
<path fill="none" stroke="#EEEEEE" stroke-width="0.25" stroke-linecap="round" stroke-miterlimit="10" d="M4641.4,698.9V510.7
	 M4316.6,698.9V510.7"/>

	<line fill="none" stroke="#EEEEEE" stroke-width="0.25" stroke-linecap="round" stroke-miterlimit="10" x1="4640.9" y1="583.6" x2="4640.9" y2="673.6"/>
<polyline fill="none" stroke="#EEEEEE" stroke-width="0.25" stroke-linecap="round" stroke-miterlimit="10" points="4629.4,525.7 
	4328.6,525.7 4328.6,556.6 	"/>

	<line fill="none" stroke="#EEEEEE" stroke-width="0.25" stroke-linecap="round" stroke-miterlimit="10" x1="4629.4" y1="525.7" x2="4629.4" y2="556.6"/>
<polyline fill="none" stroke="#EEEEEE" stroke-width="0.25" stroke-linecap="round" stroke-miterlimit="10" points="4433.9,541.1 
	4424.9,532.1 4416,541.1 	"/>
<polyline fill="none" stroke="#EEEEEE" stroke-width="0.25" stroke-linecap="round" stroke-miterlimit="10" points="4433.9,541.1 
	4424.9,550.1 4416,541.1 	"/>
<polyline fill="none" stroke="#EEEEEE" stroke-width="0.25" stroke-linecap="round" stroke-miterlimit="10" points="4524,541.1 
	4532.9,532.1 4541.9,541.1 	"/>
<polyline fill="none" stroke="#EEEEEE" stroke-width="0.25" stroke-linecap="round" stroke-miterlimit="10" points="4524,541.1 
	4532.9,550.1 4541.9,541.1 	"/>
<path fill="none" stroke="#EEEEEE" stroke-width="0.25" stroke-linecap="round" stroke-miterlimit="10" d="M4367,525.7v-7.4
	 M4391.9,525.7v-7.4 M4416.8,525.7v-7.4 M4441.6,525.7v-7.4 M4466.6,525.7v-7.4 M4491.4,525.7v-7.4 M4516.2,525.7v-7.4
	 M4541.2,525.7v-7.4 M4566,525.7v-7.4 M4591,525.7v-7.4 M4615.8,525.7v-7.4 M4342.1,525.7v-7.4 M4367,556.6v12 M4391.9,556.6v12
	 M4416.8,556.6v12 M4441.6,556.6v12 M4466.6,556.6v12 M4491.4,556.6v12 M4516.2,556.6v12 M4541.2,556.6v12 M4566,556.6v12
	 M4591,556.6v12 M4615.8,556.6v12 M4342.1,556.6v12 M4629.4,539.2h12 M4328.6,539.2h-12"/>
<path fill="none" stroke="#EEEEEE" stroke-width="0.25" stroke-linecap="round" stroke-miterlimit="10" d="M4647.8,582.2v-1.6
	 M4647.8,590.1v-4 M4647.8,598.1v-4 M4647.8,606.2v-4.1 M4647.8,614.2v-4.1 M4647.8,622.1v-4 M4647.8,630.2v-4 M4647.8,638.2v-4.1
	 M4647.8,646.1v-4 M4647.8,654.2v-4 M4647.8,662.2v-4.1 M4647.8,670.1v-4 M4647.8,678.2v-4 M4647.8,686.2v-4.1 M4647.8,694.1v-4
	 M4647.8,698.2 M4641.8,586.1v-4 M4641.8,594.2v-4.1 M4641.8,602.1v-4 M4641.8,610.1v-4 M4641.8,618.2v-4 M4641.8,626.2v-4.1
	 M4641.8,634.1v-4 M4641.8,642.2v-4 M4641.8,650.2v-4.1 M4641.8,658.1v-4 M4641.8,666.2v-4 M4641.8,674.2v-4.1 M4641.8,682.1v-4
	 M4641.8,690.2v-4 M4641.8,698.2v-4.1 M4641.4,698.2h18 M4641.4,694.1h18 M4641.4,690.2h18 M4641.4,686.2h18 M4641.4,682.1h18
	 M4641.4,678.2h18 M4641.4,674.2h18 M4641.4,670.1h18 M4641.4,666.2h18 M4641.4,662.2h18 M4641.4,658.1h18 M4641.4,654.2h18
	 M4641.4,650.2h18 M4641.4,646.1h18 M4641.4,642.2h18 M4641.4,638.2h18 M4641.4,634.1h18 M4641.4,630.2h18 M4641.4,626.2h18
	 M4641.4,622.1h18 M4641.4,618.2h18 M4641.4,614.2h18 M4641.4,610.1h18 M4641.4,606.2h18 M4641.4,602.1h18 M4641.4,598.1h18
	 M4641.4,594.2h18 M4641.4,590.1h18 M4641.4,586.1h18 M4641.4,582.2h18"/>
<path fill="none" stroke="#EEEEEE" stroke-width="0.25" stroke-linecap="round" stroke-miterlimit="10" d="M4305.8,642.2v-4
	 M4305.8,650.2v-4.1 M4305.8,658.1v-4 M4305.8,666.2v-4 M4305.8,674.2v-4.1 M4305.8,682.1v-4 M4305.8,690.2v-4 M4305.8,698.2v-4.1
	 M4299.8,582.2v-1.6 M4299.8,590.1v-4 M4299.8,598.1v-4 M4299.8,606.2v-4.1 M4299.8,614.2v-4.1 M4299.8,622.1v-4 M4299.8,630.2v-4
	 M4299.8,638.2v-4.1 M4299.8,646.1v-4 M4299.8,654.2v-4 M4299.8,662.2v-4.1 M4299.8,670.1v-4 M4299.8,678.2v-4 M4299.8,686.2v-4.1
	 M4299.8,694.1v-4 M4299.8,698.2 M4298.6,698.2h18 M4298.6,694.1h18 M4298.6,690.2h18 M4298.6,686.2h18 M4298.6,682.1h18
	 M4298.6,678.2h18 M4298.6,674.2h18 M4298.6,670.1h18 M4298.6,666.2h18 M4298.6,662.2h18 M4298.6,658.1h18 M4298.6,654.2h18
	 M4298.6,650.2h18 M4298.6,646.1h18 M4298.6,642.2h18 M4298.6,638.2h18 M4298.6,634.1h18 M4298.6,630.2h18 M4298.6,626.2h18
	 M4298.6,622.1h18 M4298.6,618.2h18 M4298.6,614.2h18 M4298.6,610.1h18 M4298.6,606.2h18 M4298.6,602.1h18 M4298.6,598.1h18
	 M4298.6,594.2h18 M4298.6,590.1h18 M4298.6,586.1h18 M4298.6,582.2h18 M4653.8,586.1v-4 M4653.8,594.2v-4.1 M4653.8,602.1v-4
	 M4653.8,610.1v-4 M4653.8,618.2v-4 M4653.8,626.2v-4.1 M4653.8,634.1v-4 M4653.8,642.2v-4 M4653.8,650.2v-4.1 M4653.8,658.1v-4
	 M4653.8,666.2v-4 M4653.8,674.2v-4.1 M4653.8,682.1v-4 M4653.8,690.2v-4 M4653.8,698.2v-4.1"/>
<path fill="none" stroke="#EEEEEE" stroke-width="0.25" stroke-linecap="round" stroke-miterlimit="10" d="M4311.8,582.2v-1.6
	 M4311.8,590.1v-4 M4311.8,598.1v-4 M4311.8,606.2v-4.1 M4311.8,614.2v-4.1 M4311.8,622.1v-4 M4311.8,630.2v-4 M4311.8,638.2v-4.1
	 M4311.8,646.1v-4 M4311.8,654.2v-4 M4311.8,662.2v-4.1 M4311.8,670.1v-4 M4311.8,678.2v-4 M4311.8,686.2v-4.1 M4311.8,694.1v-4
	 M4311.8,698.2 M4305.8,586.1v-4 M4305.8,594.2v-4.1 M4305.8,602.1v-4 M4305.8,610.1v-4 M4305.8,618.2v-4 M4305.8,626.2v-4.1
	 M4305.8,634.1v-4"/>
<path fill="none" stroke="#EEEEEE" stroke-width="0.25" stroke-linecap="round" stroke-miterlimit="10" d="M4523.9,577.6v90
	 M4514.9,577.6v90 M4505.9,577.6v90 M4496.9,577.6v90 M4487.9,577.6v90 M4433.9,577.6v90 M4442.9,577.6v90 M4451.9,577.6v90
	 M4460.9,577.6v90 M4469.9,577.6v90 M4478.9,577.6v90"/>
<path fill="none" stroke="#EEEEEE" stroke-width="0.25" stroke-linecap="round" stroke-miterlimit="10" d="M4532.9,577.6v90
	 M4424.9,577.6v90"/>
<path fill="none" stroke="#EEEEEE" stroke-width="0.25" stroke-linecap="round" stroke-miterlimit="10" d="M4316.6,673.6"/>
<path fill="none" stroke="#EEEEEE" stroke-width="0.25" stroke-linecap="round" stroke-miterlimit="10" d="M4641.4,673.6"/>
<polyline fill="none" stroke="#EEEEEE" stroke-width="0.25" stroke-linecap="round" stroke-miterlimit="10" points="4331.6,553.6 
	4331.6,528.7 4626.4,528.7 	"/>
<polyline fill="none" stroke="#EEEEEE" stroke-width="0.25" stroke-linecap="round" stroke-miterlimit="10" points="4331.6,553.6 
	4626.4,553.6 4626.4,528.7 	"/>
<path fill="none" stroke="#EEEEEE" stroke-width="0.25" stroke-linecap="round" stroke-miterlimit="10" d="M4298.6,510.7h342.8
	 M4316.6,518.2h324.8 M4316.6,513.7h-18"/>
<path fill="none" stroke="#EEEEEE" stroke-width="0.25" stroke-linecap="round" stroke-miterlimit="10" d="M4329.6,518.2v-7.6
	 M4379.4,518.2v-7.6 M4404.3,518.2v-7.6 M4429.2,518.2v-7.6 M4454.1,518.2v-7.6 M4478.9,518.2v-7.6 M4503.9,518.2v-7.6
	 M4528.7,518.2v-7.6 M4553.7,518.2v-7.6 M4578.5,518.2v-7.6 M4603.4,518.2v-7.6 M4628.3,518.2v-7.6 M4354.5,518.2v-7.6"/>
<path fill="none" stroke="#EEEEEE" stroke-width="0.25" stroke-linecap="round" stroke-miterlimit="10" d="M4641.4,667.6h-324.8
	 M4641.4,574.6h-324.8"/>
<path fill="none" stroke="#EEEEEE" stroke-width="0.25" stroke-linecap="round" stroke-miterlimit="10" d="M4657.8,513.7v6.7"/>
<path fill="none" stroke="#EEEEEE" stroke-width="0.25" stroke-linecap="round" stroke-miterlimit="10" d="M4539.8,550.1v-4
	 M4533.8,530.1v-1.4 M4533.8,553.6v-3.5 M4527.8,534.2v-4.1 M4527.8,550.1v-4 M4521.8,530.1v-1.4 M4521.8,538.1v-4 M4521.8,546.2
	v-4.1 M4521.8,553.6v-3.5 M4515.8,534.2v-4.1 M4515.8,542.1v-4 M4515.8,550.1v-4 M4509.8,530.1v-1.4 M4509.8,538.1v-4
	 M4509.8,546.2v-4.1 M4509.8,553.6v-3.5 M4503.8,534.2v-4.1 M4503.8,542.1v-4 M4503.8,550.1v-4 M4497.8,530.1v-1.4 M4497.8,538.1
	v-4 M4497.8,546.2v-4.1 M4497.8,553.6v-3.5 M4491.8,534.2v-4.1 M4491.8,542.1v-4 M4491.8,550.1v-4 M4485.8,530.1v-1.4
	 M4485.8,538.1v-4 M4485.8,546.2v-4.1 M4485.8,553.6v-3.5 M4479.8,534.2v-4.1 M4479.8,542.1v-4 M4479.8,550.1v-4 M4473.8,530.1
	v-1.4 M4473.8,538.1v-4 M4473.8,546.2v-4.1 M4473.8,553.6v-3.5 M4467.8,534.2v-4.1 M4467.8,542.1v-4 M4467.8,550.1v-4
	 M4461.8,530.1v-1.4 M4461.8,538.1v-4 M4461.8,546.2v-4.1 M4461.8,553.6v-3.5 M4455.8,534.2v-4.1 M4455.8,542.1v-4 M4455.8,550.1
	v-4 M4449.8,530.1v-1.4 M4449.8,538.1v-4 M4449.8,546.2v-4.1 M4449.8,553.6v-3.5 M4443.8,534.2v-4.1 M4443.8,542.1v-4
	 M4443.8,550.1v-4 M4437.8,530.1v-1.4 M4437.8,538.1v-4 M4437.8,546.2v-4.1 M4437.8,553.6v-3.5 M4431.8,534.2v-4.1 M4431.8,539
	v-0.8 M4431.8,550.1v-4 M4425.8,530.1v-1.4 M4425.8,553.6v-3.5 M4419.8,534.2v-4.1 M4419.8,550.1v-4 M4413.8,530.1v-1.4
	 M4413.8,538.1v-4 M4413.8,546.2v-4.1 M4413.8,553.6v-3.5 M4407.8,534.2v-4.1 M4407.8,542.1v-4 M4407.8,550.1v-4 M4401.8,530.1
	v-1.4 M4401.8,538.1v-4 M4401.8,546.2v-4.1 M4401.8,553.6v-3.5 M4395.8,534.2v-4.1 M4395.8,542.1v-4 M4395.8,550.1v-4
	 M4389.8,530.1v-1.4 M4389.8,538.1v-4 M4389.8,546.2v-4.1 M4389.8,553.6v-3.5 M4383.8,534.2v-4.1 M4383.8,542.1v-4 M4383.8,550.1
	v-4 M4377.8,530.1v-1.4 M4377.8,538.1v-4 M4377.8,546.2v-4.1 M4377.8,553.6v-3.5 M4371.8,534.2v-4.1 M4371.8,542.1v-4
	 M4371.8,550.1v-4 M4365.8,530.1v-1.4 M4365.8,538.1v-4 M4365.8,546.2v-4.1 M4365.8,553.6v-3.5 M4359.8,534.2v-4.1 M4359.8,542.1
	v-4 M4359.8,550.1v-4 M4353.8,530.1v-1.4 M4353.8,538.1v-4 M4353.8,546.2v-4.1 M4353.8,553.6v-3.5 M4347.8,534.2v-4.1
	 M4347.8,542.1v-4 M4347.8,550.1v-4 M4341.8,530.1v-1.4 M4341.8,538.1v-4 M4341.8,546.2v-4.1 M4341.8,553.6v-3.5 M4335.8,534.2
	v-4.1 M4335.8,542.1v-4 M4335.8,550.1v-4 M4331.6,550.1h294.8 M4429,546.2h100 M4537,546.2h89.4 M4331.6,546.2h89.4 M4433,542.1h92
	 M4541,542.1h85.4 M4331.6,542.1h85.4 M4430.9,538.1h96 M4538.9,538.1h87.5 M4331.6,538.1h87.4 M4427,534.2h104 M4535,534.2h91.4
	 M4331.6,534.2h91.4 M4331.6,530.1h294.8"/>
<path fill="none" stroke="#EEEEEE" stroke-width="0.25" stroke-linecap="round" stroke-miterlimit="10" d="M4623.8,534.2v-4.1
	 M4623.8,542.1v-4 M4623.8,550.1v-4 M4617.8,530.1v-1.4 M4617.8,538.1v-4 M4617.8,546.2v-4.1 M4617.8,553.6v-3.5 M4611.8,534.2
	v-4.1 M4611.8,542.1v-4 M4611.8,550.1v-4 M4605.8,530.1v-1.4 M4605.8,538.1v-4 M4605.8,546.2v-4.1 M4605.8,553.6v-3.5
	 M4599.8,534.2v-4.1 M4599.8,542.1v-4 M4599.8,550.1v-4 M4593.8,530.1v-1.4 M4593.8,538.1v-4 M4593.8,546.2v-4.1 M4593.8,553.6
	v-3.5 M4587.8,534.2v-4.1 M4587.8,542.1v-4 M4587.8,550.1v-4 M4581.8,530.1v-1.4 M4581.8,538.1v-4 M4581.8,546.2v-4.1
	 M4581.8,553.6v-3.5 M4575.8,534.2v-4.1 M4575.8,542.1v-4 M4575.8,550.1v-4 M4569.8,530.1v-1.4 M4569.8,538.1v-4 M4569.8,546.2
	v-4.1 M4569.8,553.6v-3.5 M4563.8,534.2v-4.1 M4563.8,542.1v-4 M4563.8,550.1v-4 M4557.8,530.1v-1.4 M4557.8,538.1v-4
	 M4557.8,546.2v-4.1 M4557.8,553.6v-3.5 M4551.8,534.2v-4.1 M4551.8,542.1v-4 M4551.8,550.1v-4 M4545.8,530.1v-1.4 M4545.8,538.1
	v-4 M4545.8,546.2v-4.1 M4545.8,553.6v-3.5 M4539.8,534.2v-4.1 M4539.8,539v-0.8"/>
<path fill="none" stroke="#EEEEEE" stroke-width="0.25" stroke-linecap="round" stroke-miterlimit="10" d="M4422,698.9"/>
<path fill="none" stroke="#EEEEEE" stroke-width="0.25" stroke-linecap="round" stroke-miterlimit="10" d="M4413.9,698.9"/>
<path fill="none" stroke="#EEEEEE" stroke-width="0.25" stroke-linecap="round" stroke-miterlimit="10" d="M4535.9,698.9"/>
<path fill="none" stroke="#EEEEEE" stroke-width="0.25" stroke-linecap="round" stroke-miterlimit="10" d="M4544.1,698.9"/>
<path fill="none" stroke="#EEEEEE" stroke-width="0.25" stroke-linecap="round" stroke-miterlimit="10" d="M4316.6,679.6
	 M4641.4,679.6 M4641.4,687.9 M4316.6,687.9 M4316.6,697.9h324.8"/>
<g>
	<path fill="#EEEEEE" d="M4465.7,684.8h2.5l-0.3,2.5h-2.2v2.1c0,0.8,0.8,1.2,2.5,1.2v2.2h-11.1v-2.2c2.2,0,3.3-0.4,3.3-1.2v-2.1
		h-8.8v-2.1l9-11h5.1V684.8z M4454.9,684.8h5.6V678L4454.9,684.8z"/>
	<path fill="#EEEEEE" d="M4486.4,687.8c0,0.2,0.1,0.5,0.1,0.9c0,0.3,0,0.6,0,0.8c0,0.5-0.1,1-0.2,1.4c-0.1,0.4-0.3,0.8-0.6,1.1
		c-0.3,0.3-0.7,0.6-1.1,0.8c-0.4,0.2-1,0.3-1.6,0.3c-1,0-1.8-0.1-2.4-0.3c-0.6-0.2-1.2-0.4-1.7-0.6c-0.5-0.2-1-0.4-1.5-0.6
		c-0.5-0.2-1.1-0.3-1.9-0.3c-0.6,0-1.2,0.1-1.6,0.3c-0.4,0.2-0.7,0.6-1,1h-2c0.3-1.5,0.7-2.8,1.3-3.8c0.6-1,1.2-1.8,1.9-2.5
		c0.7-0.7,1.4-1.2,2.2-1.7s1.4-0.9,2-1.4c0.6-0.5,1.1-1,1.5-1.6s0.6-1.4,0.6-2.4c0-1-0.3-1.7-0.8-2.3c-0.6-0.5-1.3-0.8-2.2-0.8
		c-0.9,0-1.6,0.1-2,0.4s-0.8,0.6-1,1c0.4,0,0.7,0.2,1.1,0.6c0.3,0.4,0.5,0.8,0.5,1.3c0,0.6-0.2,1.2-0.6,1.6
		c-0.4,0.4-0.9,0.6-1.6,0.6c-0.7,0-1.2-0.2-1.6-0.7c-0.4-0.4-0.6-1-0.6-1.7c0-0.6,0.1-1.2,0.4-1.8s0.7-1.2,1.3-1.7
		c0.6-0.5,1.3-0.9,2.2-1.3c0.9-0.3,2-0.5,3.2-0.5c0.9,0,1.8,0.1,2.7,0.3s1.7,0.5,2.4,0.9c0.7,0.4,1.2,1,1.7,1.7
		c0.4,0.7,0.6,1.6,0.6,2.7c0,1.3-0.3,2.3-0.8,3.1c-0.5,0.8-1.2,1.4-2,1.9c-0.8,0.5-1.7,0.9-2.6,1.2c-1,0.3-1.9,0.6-2.7,0.9
		c-0.9,0.3-1.6,0.7-2.3,1c-0.6,0.4-1.1,0.9-1.2,1.6c0.5-0.5,1.1-0.8,1.7-1c0.6-0.2,1.2-0.3,2-0.3c0.6,0,1.2,0.1,1.6,0.2
		c0.5,0.1,0.9,0.2,1.3,0.4c0.4,0.1,0.8,0.2,1.1,0.4c0.4,0.1,0.8,0.2,1.2,0.2c0.5,0,0.9-0.1,1.3-0.3c0.3-0.2,0.5-0.6,0.6-1.2H4486.4
		z"/>
	<path fill="#EEEEEE" d="M4489.3,679.1c0-0.2-0.1-0.5-0.1-0.9c0-0.3,0-0.6,0-0.8c0-0.5,0.1-1,0.2-1.4c0.1-0.4,0.3-0.8,0.6-1.1
		c0.3-0.3,0.6-0.6,1.1-0.8c0.4-0.2,1-0.3,1.6-0.3c1,0,1.8,0.1,2.4,0.3c0.6,0.2,1.2,0.4,1.7,0.6c0.5,0.2,1,0.4,1.5,0.6
		c0.5,0.2,1.2,0.3,2,0.3c0.5,0,0.9-0.1,1.2-0.3c0.3-0.2,0.6-0.5,0.9-1c0.1,0.3,0.3,0.5,0.5,0.8c0.2,0.3,0.3,0.5,0.5,0.8
		c-0.8,0.9-1.5,1.6-2,2.3c-0.6,0.7-1.1,1.4-1.5,2c-0.4,0.6-0.7,1.2-1,1.8c-0.3,0.6-0.5,1.1-0.6,1.7c-0.1,0.6-0.2,1.2-0.3,1.8
		c-0.1,0.6-0.1,1.3-0.1,2.1c0,0.3,0,0.7,0,1c0,0.4,0,0.7,0,1.1c0,0.5,0,0.9-0.1,1.3c-0.1,0.4-0.2,0.8-0.4,1.1
		c-0.2,0.3-0.5,0.6-0.8,0.8s-0.9,0.3-1.5,0.3c-1.1,0-1.9-0.3-2.4-0.9s-0.7-1.4-0.7-2.5c0-1.3,0.2-2.5,0.7-3.7
		c0.4-1.1,1-2.2,1.8-3.2c0.7-1,1.6-1.9,2.5-2.7s1.9-1.6,3-2.2c-0.5,0.2-0.9,0.4-1.3,0.4c-0.4,0.1-0.8,0.1-1.1,0.1
		c-0.5,0-0.9-0.1-1.3-0.2c-0.4-0.1-0.8-0.2-1.2-0.4c-0.4-0.1-0.8-0.3-1.1-0.4c-0.4-0.1-0.8-0.2-1.2-0.2c-0.4,0-0.8,0.1-1.2,0.3
		c-0.4,0.2-0.6,0.7-0.7,1.4H4489.3z"/>
</g>
<g>
	<g>
		<polyline fill="none" stroke="#EEEEEE" stroke-width="0.25" stroke-linecap="round" stroke-miterlimit="10" points="4612,670 
			4639.1,670 4639.1,696.9 			"/>
		<polyline fill="none" stroke="#EEEEEE" stroke-width="0.25" stroke-linecap="round" stroke-miterlimit="10" points="4612,670 
			4612,696.9 4639.1,696.9 			"/>
	</g>
	<g>
		<polyline fill="none" stroke="#EEEEEE" stroke-width="0.25" stroke-linecap="round" stroke-miterlimit="10" points="
			4614.3,672.2 4636.8,672.2 4636.8,694.6 			"/>
		<polyline fill="none" stroke="#EEEEEE" stroke-width="0.25" stroke-linecap="round" stroke-miterlimit="10" points="
			4614.3,672.2 4614.3,694.6 4636.8,694.6 			"/>
	</g>
</g>
<g>
	<g>
		<polyline fill="none" stroke="#EEEEEE" stroke-width="0.25" stroke-linecap="round" stroke-miterlimit="10" points="4318.8,670 
			4345.9,670 4345.9,696.9 			"/>
		<polyline fill="none" stroke="#EEEEEE" stroke-width="0.25" stroke-linecap="round" stroke-miterlimit="10" points="4318.8,670 
			4318.8,696.9 4345.9,696.9 			"/>
	</g>
	<g>
		<polyline fill="none" stroke="#EEEEEE" stroke-width="0.25" stroke-linecap="round" stroke-miterlimit="10" points="
			4321.1,672.2 4343.7,672.2 4343.7,694.6 			"/>
		<polyline fill="none" stroke="#EEEEEE" stroke-width="0.25" stroke-linecap="round" stroke-miterlimit="10" points="
			4321.1,672.2 4321.1,694.6 4343.7,694.6 			"/>
	</g>
</g>
<g>
	<g>
		<polyline fill="none" stroke="#EEEEEE" stroke-width="0.25" stroke-linecap="round" stroke-miterlimit="10" points="4348.9,670 
			4609,670 4609,696.9 			"/>
		<polyline fill="none" stroke="#EEEEEE" stroke-width="0.25" stroke-linecap="round" stroke-miterlimit="10" points="4348.9,670 
			4348.9,696.9 4609,696.9 			"/>
	</g>
	<g>
		<polyline fill="none" stroke="#EEEEEE" stroke-width="0.25" stroke-linecap="round" stroke-miterlimit="10" points="
			4351.2,672.2 4606.7,672.2 4606.7,694.6 			"/>
		<polyline fill="none" stroke="#EEEEEE" stroke-width="0.25" stroke-linecap="round" stroke-miterlimit="10" points="
			4351.2,672.2 4351.2,694.6 4606.7,694.6 			"/>
	</g>
</g>
<g>
	<path fill="#EEEEEE" d="M4332.7,689.8c1.3-7.8,9.2-7.4,9.2-7.4l0,0C4341.9,682.4,4340.6,689.9,4332.7,689.8L4332.7,689.8z"/>
	<path fill="#EEEEEE" d="M4332.6,683.6c0.9-5.1,6-4.7,6-4.7l0,0C4338.5,678.9,4337.7,683.6,4332.6,683.6L4332.6,683.6z"/>
	<path fill="#EEEEEE" d="M4332.5,679.1c0.5-3.1,3.6-2.7,3.6-2.7l0,0C4336.1,676.4,4335.6,679.1,4332.5,679.1L4332.5,679.1z"/>
	<path fill="#EEEEEE" d="M4332.1,689.8c-1.3-7.8-9.2-7.4-9.2-7.4l0,0C4322.9,682.4,4324.2,689.9,4332.1,689.8L4332.1,689.8z"/>
	<path fill="#EEEEEE" d="M4332.2,683.6c-0.9-5.1-6-4.7-6-4.7l0,0C4326.3,678.9,4327.1,683.6,4332.2,683.6L4332.2,683.6z"/>
	<path fill="#EEEEEE" d="M4332.3,679.1c-0.5-3.1-3.6-2.7-3.6-2.7l0,0C4328.7,676.4,4329.2,679.1,4332.3,679.1L4332.3,679.1z"/>
	<g>
		<polygon fill="#EEEEEE" points="4332.4,676.5 4332,690.8 4332.8,690.8 4332.4,676.5 			"/>
	</g>
</g>
<g>
	<path fill="#EEEEEE" d="M4625.8,689.8c1.3-7.8,9.2-7.4,9.2-7.4l0,0C4635,682.4,4633.8,689.9,4625.8,689.8L4625.8,689.8z"/>
	<path fill="#EEEEEE" d="M4625.7,683.6c0.8-5.1,6-4.7,6-4.7l0,0C4631.7,678.9,4630.9,683.6,4625.7,683.6L4625.7,683.6z"/>
	<path fill="#EEEEEE" d="M4625.6,679.1c0.5-3.1,3.6-2.7,3.6-2.7l0,0C4629.3,676.4,4628.8,679.1,4625.6,679.1L4625.6,679.1z"/>
	<path fill="#EEEEEE" d="M4625.3,689.8c-1.3-7.8-9.2-7.4-9.2-7.4l0,0C4616.1,682.4,4617.3,689.9,4625.3,689.8L4625.3,689.8z"/>
	<path fill="#EEEEEE" d="M4625.4,683.6c-0.9-5.1-6-4.7-6-4.7h0C4619.4,678.9,4620.2,683.6,4625.4,683.6L4625.4,683.6z"/>
	<path fill="#EEEEEE" d="M4625.5,679.1c-0.5-3.1-3.6-2.7-3.6-2.7l0,0C4621.8,676.4,4622.3,679.1,4625.5,679.1L4625.5,679.1z"/>
	<g>
		<polygon fill="#EEEEEE" points="4625.5,676.5 4625.2,690.8 4625.9,690.8 4625.6,676.5 			"/>
	</g>
</g>

	<line fill="none" stroke="#EEEEEE" stroke-width="0.25" stroke-linecap="round" stroke-miterlimit="10" x1="4298.6" y1="698.2" x2="4298.6" y2="510.7"/>

	<line fill="none" stroke="#EEEEEE" stroke-width="0.25" stroke-linecap="round" stroke-miterlimit="10" x1="4659.4" y1="698.2" x2="4659.4" y2="510.7"/></g></svg>